<?xml version="1.0" encoding="UTF-8"?>
<svg id="Layer_1" data-name="Layer 1" xmlns="http://www.w3.org/2000/svg" xmlns:xlink="http://www.w3.org/1999/xlink" viewBox="0 0 468 136.8">
  <defs>
    <style>
      .cls-1, .cls-2, .cls-3, .cls-4, .cls-5, .cls-6, .cls-7 {
        fill: none;
      }

      .cls-8 {
        fill: #ff7f0e;
      }

      .cls-9 {
        fill: url(#Unnamed_Pattern);
      }

      .cls-2 {
        stroke: #ccc;
      }

      .cls-2, .cls-10 {
        opacity: .8;
      }

      .cls-2, .cls-4, .cls-5, .cls-6, .cls-7 {
        stroke-miterlimit: 10;
      }

      .cls-11 {
        fill: #ff9896;
      }

      .cls-12 {
        fill: #c5b0d5;
      }

      .cls-13 {
        fill: #9467bd;
      }

      .cls-14 {
        fill: #ffbb78;
      }

      .cls-10, .cls-15 {
        fill: #fff;
      }

      .cls-16 {
        fill: #d62728;
      }

      .cls-3 {
        stroke-linejoin: round;
      }

      .cls-3, .cls-5, .cls-6 {
        stroke: #000;
      }

      .cls-3, .cls-6 {
        stroke-width: .8px;
      }

      .cls-17 {
        fill: url(#Unnamed_Pattern_4);
      }

      .cls-18 {
        fill: url(#Unnamed_Pattern_3);
      }

      .cls-19 {
        fill: url(#Unnamed_Pattern_2);
      }

      .cls-20 {
        fill: url(#Unnamed_Pattern_8);
      }

      .cls-21 {
        fill: url(#Unnamed_Pattern_7);
      }

      .cls-22 {
        fill: url(#Unnamed_Pattern_6);
      }

      .cls-23 {
        fill: url(#Unnamed_Pattern_5);
      }

      .cls-24 {
        fill: url(#Unnamed_Pattern_9);
      }

      .cls-25 {
        clip-path: url(#clippath-17);
      }

      .cls-26 {
        clip-path: url(#clippath-19);
      }

      .cls-27 {
        clip-path: url(#clippath-11);
      }

      .cls-28 {
        clip-path: url(#clippath-16);
      }

      .cls-29 {
        clip-path: url(#clippath-18);
      }

      .cls-30 {
        clip-path: url(#clippath-10);
      }

      .cls-31 {
        clip-path: url(#clippath-15);
      }

      .cls-32 {
        clip-path: url(#clippath-13);
      }

      .cls-33 {
        clip-path: url(#clippath-14);
      }

      .cls-34 {
        clip-path: url(#clippath-12);
      }

      .cls-35 {
        clip-path: url(#clippath-61);
      }

      .cls-36 {
        clip-path: url(#clippath-67);
      }

      .cls-37 {
        clip-path: url(#clippath-60);
      }

      .cls-38 {
        clip-path: url(#clippath-65);
      }

      .cls-39 {
        clip-path: url(#clippath-62);
      }

      .cls-40 {
        clip-path: url(#clippath-64);
      }

      .cls-41 {
        clip-path: url(#clippath-66);
      }

      .cls-42 {
        clip-path: url(#clippath-63);
      }

      .cls-43 {
        clip-path: url(#clippath-50);
      }

      .cls-44 {
        clip-path: url(#clippath-55);
      }

      .cls-45 {
        clip-path: url(#clippath-52);
      }

      .cls-46 {
        clip-path: url(#clippath-57);
      }

      .cls-47 {
        clip-path: url(#clippath-54);
      }

      .cls-48 {
        clip-path: url(#clippath-56);
      }

      .cls-49 {
        clip-path: url(#clippath-53);
      }

      .cls-50 {
        clip-path: url(#clippath-51);
      }

      .cls-51 {
        clip-path: url(#clippath-58);
      }

      .cls-52 {
        clip-path: url(#clippath-59);
      }

      .cls-53 {
        clip-path: url(#clippath-31);
      }

      .cls-54 {
        clip-path: url(#clippath-32);
      }

      .cls-55 {
        clip-path: url(#clippath-33);
      }

      .cls-56 {
        clip-path: url(#clippath-34);
      }

      .cls-57 {
        clip-path: url(#clippath-35);
      }

      .cls-58 {
        clip-path: url(#clippath-39);
      }

      .cls-59 {
        clip-path: url(#clippath-30);
      }

      .cls-60 {
        clip-path: url(#clippath-36);
      }

      .cls-61 {
        clip-path: url(#clippath-37);
      }

      .cls-62 {
        clip-path: url(#clippath-38);
      }

      .cls-63 {
        clip-path: url(#clippath-27);
      }

      .cls-64 {
        clip-path: url(#clippath-29);
      }

      .cls-65 {
        clip-path: url(#clippath-26);
      }

      .cls-66 {
        clip-path: url(#clippath-28);
      }

      .cls-67 {
        clip-path: url(#clippath-20);
      }

      .cls-68 {
        clip-path: url(#clippath-21);
      }

      .cls-69 {
        clip-path: url(#clippath-22);
      }

      .cls-70 {
        clip-path: url(#clippath-23);
      }

      .cls-71 {
        clip-path: url(#clippath-24);
      }

      .cls-72 {
        clip-path: url(#clippath-25);
      }

      .cls-73 {
        clip-path: url(#clippath-41);
      }

      .cls-74 {
        clip-path: url(#clippath-42);
      }

      .cls-75 {
        clip-path: url(#clippath-43);
      }

      .cls-76 {
        clip-path: url(#clippath-44);
      }

      .cls-77 {
        clip-path: url(#clippath-45);
      }

      .cls-78 {
        clip-path: url(#clippath-49);
      }

      .cls-79 {
        clip-path: url(#clippath-40);
      }

      .cls-80 {
        clip-path: url(#clippath-46);
      }

      .cls-81 {
        clip-path: url(#clippath-47);
      }

      .cls-82 {
        clip-path: url(#clippath-48);
      }

      .cls-83 {
        clip-path: url(#clippath-1);
      }

      .cls-84 {
        clip-path: url(#clippath-3);
      }

      .cls-85 {
        clip-path: url(#clippath-4);
      }

      .cls-86 {
        clip-path: url(#clippath-2);
      }

      .cls-87 {
        clip-path: url(#clippath-7);
      }

      .cls-88 {
        clip-path: url(#clippath-6);
      }

      .cls-89 {
        clip-path: url(#clippath-9);
      }

      .cls-90 {
        clip-path: url(#clippath-8);
      }

      .cls-91 {
        clip-path: url(#clippath-5);
      }

      .cls-4, .cls-7 {
        stroke: navy;
      }

      .cls-92 {
        fill: #2ca02c;
      }

      .cls-5 {
        stroke-width: .5px;
      }

      .cls-93 {
        fill: #aec7e8;
      }

      .cls-6 {
        stroke-linecap: square;
      }

      .cls-94 {
        fill: #98df8a;
      }

      .cls-95 {
        fill: url(#Unnamed_Pattern_14);
      }

      .cls-96 {
        fill: url(#Unnamed_Pattern_12);
      }

      .cls-97 {
        fill: url(#Unnamed_Pattern_11);
      }

      .cls-98 {
        fill: url(#Unnamed_Pattern_10);
      }

      .cls-99 {
        fill: url(#Unnamed_Pattern_13);
      }

      .cls-7 {
        stroke-width: .15px;
      }

      .cls-100 {
        clip-path: url(#clippath);
      }
    </style>
    <clipPath id="clippath">
      <rect class="cls-1" x="44.46" y="5.47" width="421.2" height="81.4"/>
    </clipPath>
    <clipPath id="clippath-1">
      <rect class="cls-1" x="44.46" y="5.47" width="421.2" height="81.4"/>
    </clipPath>
    <clipPath id="clippath-2">
      <rect class="cls-1" x="44.46" y="5.47" width="421.2" height="81.4"/>
    </clipPath>
    <clipPath id="clippath-3">
      <rect class="cls-1" x="44.46" y="5.47" width="421.2" height="81.4"/>
    </clipPath>
    <clipPath id="clippath-4">
      <rect class="cls-1" x="44.46" y="5.47" width="421.2" height="81.4"/>
    </clipPath>
    <clipPath id="clippath-5">
      <rect class="cls-1" x="44.46" y="5.47" width="421.2" height="81.4"/>
    </clipPath>
    <clipPath id="clippath-6">
      <rect class="cls-1" x="44.46" y="5.47" width="421.2" height="81.4"/>
    </clipPath>
    <clipPath id="clippath-7">
      <rect class="cls-1" x="44.46" y="5.47" width="421.2" height="81.4"/>
    </clipPath>
    <clipPath id="clippath-8">
      <rect class="cls-1" x="44.46" y="5.47" width="421.2" height="81.4"/>
    </clipPath>
    <clipPath id="clippath-9">
      <rect class="cls-1" x="44.46" y="5.47" width="421.2" height="81.4"/>
    </clipPath>
    <clipPath id="clippath-10">
      <rect class="cls-1" x="44.46" y="5.47" width="421.2" height="81.4"/>
    </clipPath>
    <clipPath id="clippath-11">
      <rect class="cls-1" x="44.46" y="5.47" width="421.2" height="81.4"/>
    </clipPath>
    <clipPath id="clippath-12">
      <rect class="cls-1" x="44.46" y="5.47" width="421.2" height="81.4"/>
    </clipPath>
    <clipPath id="clippath-13">
      <rect class="cls-1" x="44.46" y="5.47" width="421.2" height="81.4"/>
    </clipPath>
    <clipPath id="clippath-14">
      <rect class="cls-1" x="44.46" y="5.47" width="421.2" height="81.4"/>
    </clipPath>
    <clipPath id="clippath-15">
      <rect class="cls-1" x="44.46" y="5.47" width="421.2" height="81.4"/>
    </clipPath>
    <clipPath id="clippath-16">
      <rect class="cls-1" x="44.46" y="5.47" width="421.2" height="81.4"/>
    </clipPath>
    <clipPath id="clippath-17">
      <rect class="cls-1" x="44.46" y="5.47" width="421.2" height="81.4"/>
    </clipPath>
    <clipPath id="clippath-18">
      <rect class="cls-1" x="44.46" y="5.47" width="421.2" height="81.4"/>
    </clipPath>
    <clipPath id="clippath-19">
      <rect class="cls-1" x="44.46" y="5.47" width="421.2" height="81.4"/>
    </clipPath>
    <clipPath id="clippath-20">
      <rect class="cls-1" x="44.46" y="5.47" width="421.2" height="81.4"/>
    </clipPath>
    <clipPath id="clippath-21">
      <rect class="cls-1" x="44.46" y="5.47" width="421.2" height="81.4"/>
    </clipPath>
    <clipPath id="clippath-22">
      <rect class="cls-1" x="44.46" y="5.47" width="421.2" height="81.4"/>
    </clipPath>
    <clipPath id="clippath-23">
      <rect class="cls-1" x="44.46" y="5.47" width="421.2" height="81.4"/>
    </clipPath>
    <clipPath id="clippath-24">
      <rect class="cls-1" x="44.46" y="5.47" width="421.2" height="81.4"/>
    </clipPath>
    <clipPath id="clippath-25">
      <rect class="cls-1" x="44.46" y="5.47" width="421.2" height="81.4"/>
    </clipPath>
    <clipPath id="clippath-26">
      <rect class="cls-1" x="44.46" y="5.47" width="421.2" height="81.4"/>
    </clipPath>
    <clipPath id="clippath-27">
      <rect class="cls-1" x="44.46" y="5.47" width="421.2" height="81.4"/>
    </clipPath>
    <clipPath id="clippath-28">
      <rect class="cls-1" x="44.46" y="5.47" width="421.2" height="81.4"/>
    </clipPath>
    <clipPath id="clippath-29">
      <rect class="cls-1" x="44.46" y="5.47" width="421.2" height="81.4"/>
    </clipPath>
    <clipPath id="clippath-30">
      <rect class="cls-1" x="44.46" y="5.47" width="421.2" height="81.4"/>
    </clipPath>
    <clipPath id="clippath-31">
      <rect class="cls-1" x="44.46" y="5.47" width="421.2" height="81.4"/>
    </clipPath>
    <clipPath id="clippath-32">
      <rect class="cls-1" x="44.46" y="5.47" width="421.2" height="81.4"/>
    </clipPath>
    <clipPath id="clippath-33">
      <rect class="cls-1" x="44.46" y="5.47" width="421.2" height="81.4"/>
    </clipPath>
    <clipPath id="clippath-34">
      <rect class="cls-1" x="44.46" y="5.47" width="421.2" height="81.4"/>
    </clipPath>
    <clipPath id="clippath-35">
      <rect class="cls-1" x="44.46" y="5.47" width="421.2" height="81.4"/>
    </clipPath>
    <clipPath id="clippath-36">
      <rect class="cls-1" x="44.46" y="5.47" width="421.2" height="81.4"/>
    </clipPath>
    <clipPath id="clippath-37">
      <rect class="cls-1" x="44.46" y="5.47" width="421.2" height="81.4"/>
    </clipPath>
    <clipPath id="clippath-38">
      <rect class="cls-1" x="44.46" y="5.47" width="421.2" height="81.4"/>
    </clipPath>
    <clipPath id="clippath-39">
      <rect class="cls-1" x="44.46" y="5.47" width="421.2" height="81.4"/>
    </clipPath>
    <clipPath id="clippath-40">
      <rect class="cls-1" x="44.46" y="5.47" width="421.2" height="81.4"/>
    </clipPath>
    <clipPath id="clippath-41">
      <rect class="cls-1" x="44.46" y="5.47" width="421.2" height="81.4"/>
    </clipPath>
    <clipPath id="clippath-42">
      <rect class="cls-1" x="44.46" y="5.47" width="421.2" height="81.4"/>
    </clipPath>
    <clipPath id="clippath-43">
      <rect class="cls-1" y="0" width="72" height="72"/>
    </clipPath>
    <pattern id="Unnamed_Pattern" data-name="Unnamed Pattern" x="0" y="0" width="72" height="72" patternTransform="translate(0 0) scale(1 -1)" patternUnits="userSpaceOnUse" viewBox="0 0 72 72">
      <g>
        <rect class="cls-1" y="0" width="72" height="72"/>
        <g class="cls-75">
          <rect class="cls-92" y="0" width="72" height="72"/>
          <path class="cls-92" d="M36-36L108,36M30-30L102,42M24-24L96,48M18-18L90,54M12-12L84,60M6-6l72,72M0,0l72,72M-6,6l72,72M-12,12L60,84M-18,18L54,90M-24,24L48,96M-30,30L42,102M-36,36L36,108"/>
          <path class="cls-7" d="M36-36L108,36M30-30L102,42M24-24L96,48M18-18L90,54M12-12L84,60M6-6l72,72M0,0l72,72M-6,6l72,72M-12,12L60,84M-18,18L54,90M-24,24L48,96M-30,30L42,102M-36,36L36,108"/>
        </g>
      </g>
    </pattern>
    <clipPath id="clippath-44">
      <rect class="cls-1" x="44.46" y="5.47" width="421.2" height="81.4"/>
    </clipPath>
    <clipPath id="clippath-45">
      <rect class="cls-1" y="0" width="72" height="72"/>
    </clipPath>
    <pattern id="Unnamed_Pattern_2" data-name="Unnamed Pattern 2" x="0" y="0" width="72" height="72" patternTransform="translate(0 0) scale(1 -1)" patternUnits="userSpaceOnUse" viewBox="0 0 72 72">
      <g>
        <rect class="cls-1" y="0" width="72" height="72"/>
        <g class="cls-77">
          <rect class="cls-92" y="0" width="72" height="72"/>
          <path class="cls-92" d="M36-36L108,36M30-30L102,42M24-24L96,48M18-18L90,54M12-12L84,60M6-6l72,72M0,0l72,72M-6,6l72,72M-12,12L60,84M-18,18L54,90M-24,24L48,96M-30,30L42,102M-36,36L36,108"/>
          <path class="cls-7" d="M36-36L108,36M30-30L102,42M24-24L96,48M18-18L90,54M12-12L84,60M6-6l72,72M0,0l72,72M-6,6l72,72M-12,12L60,84M-18,18L54,90M-24,24L48,96M-30,30L42,102M-36,36L36,108"/>
        </g>
      </g>
    </pattern>
    <clipPath id="clippath-46">
      <rect class="cls-1" x="44.46" y="5.47" width="421.2" height="81.4"/>
    </clipPath>
    <clipPath id="clippath-47">
      <rect class="cls-1" y="0" width="72" height="72"/>
    </clipPath>
    <pattern id="Unnamed_Pattern_3" data-name="Unnamed Pattern 3" x="0" y="0" width="72" height="72" patternTransform="translate(0 0) scale(1 -1)" patternUnits="userSpaceOnUse" viewBox="0 0 72 72">
      <g>
        <rect class="cls-1" y="0" width="72" height="72"/>
        <g class="cls-81">
          <rect class="cls-92" y="0" width="72" height="72"/>
          <path class="cls-92" d="M36-36L108,36M30-30L102,42M24-24L96,48M18-18L90,54M12-12L84,60M6-6l72,72M0,0l72,72M-6,6l72,72M-12,12L60,84M-18,18L54,90M-24,24L48,96M-30,30L42,102M-36,36L36,108"/>
          <path class="cls-7" d="M36-36L108,36M30-30L102,42M24-24L96,48M18-18L90,54M12-12L84,60M6-6l72,72M0,0l72,72M-6,6l72,72M-12,12L60,84M-18,18L54,90M-24,24L48,96M-30,30L42,102M-36,36L36,108"/>
        </g>
      </g>
    </pattern>
    <clipPath id="clippath-48">
      <rect class="cls-1" x="44.46" y="5.47" width="421.2" height="81.4"/>
    </clipPath>
    <clipPath id="clippath-49">
      <rect class="cls-1" y="0" width="72" height="72"/>
    </clipPath>
    <pattern id="Unnamed_Pattern_4" data-name="Unnamed Pattern 4" x="0" y="0" width="72" height="72" patternTransform="translate(0 0) scale(1 -1)" patternUnits="userSpaceOnUse" viewBox="0 0 72 72">
      <g>
        <rect class="cls-1" y="0" width="72" height="72"/>
        <g class="cls-78">
          <rect class="cls-92" y="0" width="72" height="72"/>
          <path class="cls-92" d="M36-36L108,36M30-30L102,42M24-24L96,48M18-18L90,54M12-12L84,60M6-6l72,72M0,0l72,72M-6,6l72,72M-12,12L60,84M-18,18L54,90M-24,24L48,96M-30,30L42,102M-36,36L36,108"/>
          <path class="cls-7" d="M36-36L108,36M30-30L102,42M24-24L96,48M18-18L90,54M12-12L84,60M6-6l72,72M0,0l72,72M-6,6l72,72M-12,12L60,84M-18,18L54,90M-24,24L48,96M-30,30L42,102M-36,36L36,108"/>
        </g>
      </g>
    </pattern>
    <clipPath id="clippath-50">
      <rect class="cls-1" x="44.46" y="5.47" width="421.2" height="81.4"/>
    </clipPath>
    <clipPath id="clippath-51">
      <rect class="cls-1" y="0" width="72" height="72"/>
    </clipPath>
    <pattern id="Unnamed_Pattern_5" data-name="Unnamed Pattern 5" x="0" y="0" width="72" height="72" patternTransform="translate(0 0) scale(1 -1)" patternUnits="userSpaceOnUse" viewBox="0 0 72 72">
      <g>
        <rect class="cls-1" y="0" width="72" height="72"/>
        <g class="cls-50">
          <rect class="cls-92" y="0" width="72" height="72"/>
          <path class="cls-92" d="M36-36L108,36M30-30L102,42M24-24L96,48M18-18L90,54M12-12L84,60M6-6l72,72M0,0l72,72M-6,6l72,72M-12,12L60,84M-18,18L54,90M-24,24L48,96M-30,30L42,102M-36,36L36,108"/>
          <path class="cls-7" d="M36-36L108,36M30-30L102,42M24-24L96,48M18-18L90,54M12-12L84,60M6-6l72,72M0,0l72,72M-6,6l72,72M-12,12L60,84M-18,18L54,90M-24,24L48,96M-30,30L42,102M-36,36L36,108"/>
        </g>
      </g>
    </pattern>
    <clipPath id="clippath-52">
      <rect class="cls-1" x="44.46" y="5.47" width="421.2" height="81.4"/>
    </clipPath>
    <clipPath id="clippath-53">
      <rect class="cls-1" y="0" width="72" height="72"/>
    </clipPath>
    <pattern id="Unnamed_Pattern_6" data-name="Unnamed Pattern 6" x="0" y="0" width="72" height="72" patternTransform="translate(0 0) scale(1 -1)" patternUnits="userSpaceOnUse" viewBox="0 0 72 72">
      <g>
        <rect class="cls-1" y="0" width="72" height="72"/>
        <g class="cls-49">
          <rect class="cls-92" y="0" width="72" height="72"/>
          <path class="cls-92" d="M36-36L108,36M30-30L102,42M24-24L96,48M18-18L90,54M12-12L84,60M6-6l72,72M0,0l72,72M-6,6l72,72M-12,12L60,84M-18,18L54,90M-24,24L48,96M-30,30L42,102M-36,36L36,108"/>
          <path class="cls-7" d="M36-36L108,36M30-30L102,42M24-24L96,48M18-18L90,54M12-12L84,60M6-6l72,72M0,0l72,72M-6,6l72,72M-12,12L60,84M-18,18L54,90M-24,24L48,96M-30,30L42,102M-36,36L36,108"/>
        </g>
      </g>
    </pattern>
    <clipPath id="clippath-54">
      <rect class="cls-1" x="44.46" y="5.47" width="421.2" height="81.4"/>
    </clipPath>
    <clipPath id="clippath-55">
      <rect class="cls-1" y="0" width="72" height="72"/>
    </clipPath>
    <pattern id="Unnamed_Pattern_7" data-name="Unnamed Pattern 7" x="0" y="0" width="72" height="72" patternTransform="translate(0 0) scale(1 -1)" patternUnits="userSpaceOnUse" viewBox="0 0 72 72">
      <g>
        <rect class="cls-1" y="0" width="72" height="72"/>
        <g class="cls-44">
          <rect class="cls-94" y="0" width="72" height="72"/>
          <path class="cls-94" d="M36-36L108,36M30-30L102,42M24-24L96,48M18-18L90,54M12-12L84,60M6-6l72,72M0,0l72,72M-6,6l72,72M-12,12L60,84M-18,18L54,90M-24,24L48,96M-30,30L42,102M-36,36L36,108"/>
          <path class="cls-7" d="M36-36L108,36M30-30L102,42M24-24L96,48M18-18L90,54M12-12L84,60M6-6l72,72M0,0l72,72M-6,6l72,72M-12,12L60,84M-18,18L54,90M-24,24L48,96M-30,30L42,102M-36,36L36,108"/>
        </g>
      </g>
    </pattern>
    <clipPath id="clippath-56">
      <rect class="cls-1" x="44.46" y="5.47" width="421.2" height="81.4"/>
    </clipPath>
    <clipPath id="clippath-57">
      <rect class="cls-1" y="0" width="72" height="72"/>
    </clipPath>
    <pattern id="Unnamed_Pattern_8" data-name="Unnamed Pattern 8" x="0" y="0" width="72" height="72" patternTransform="translate(0 0) scale(1 -1)" patternUnits="userSpaceOnUse" viewBox="0 0 72 72">
      <g>
        <rect class="cls-1" y="0" width="72" height="72"/>
        <g class="cls-46">
          <rect class="cls-94" y="0" width="72" height="72"/>
          <path class="cls-94" d="M36-36L108,36M30-30L102,42M24-24L96,48M18-18L90,54M12-12L84,60M6-6l72,72M0,0l72,72M-6,6l72,72M-12,12L60,84M-18,18L54,90M-24,24L48,96M-30,30L42,102M-36,36L36,108"/>
          <path class="cls-7" d="M36-36L108,36M30-30L102,42M24-24L96,48M18-18L90,54M12-12L84,60M6-6l72,72M0,0l72,72M-6,6l72,72M-12,12L60,84M-18,18L54,90M-24,24L48,96M-30,30L42,102M-36,36L36,108"/>
        </g>
      </g>
    </pattern>
    <clipPath id="clippath-58">
      <rect class="cls-1" x="44.46" y="5.47" width="421.2" height="81.4"/>
    </clipPath>
    <clipPath id="clippath-59">
      <rect class="cls-1" y="0" width="72" height="72"/>
    </clipPath>
    <pattern id="Unnamed_Pattern_9" data-name="Unnamed Pattern 9" x="0" y="0" width="72" height="72" patternTransform="translate(0 0) scale(1 -1)" patternUnits="userSpaceOnUse" viewBox="0 0 72 72">
      <g>
        <rect class="cls-1" y="0" width="72" height="72"/>
        <g class="cls-52">
          <rect class="cls-94" y="0" width="72" height="72"/>
          <path class="cls-94" d="M36-36L108,36M30-30L102,42M24-24L96,48M18-18L90,54M12-12L84,60M6-6l72,72M0,0l72,72M-6,6l72,72M-12,12L60,84M-18,18L54,90M-24,24L48,96M-30,30L42,102M-36,36L36,108"/>
          <path class="cls-7" d="M36-36L108,36M30-30L102,42M24-24L96,48M18-18L90,54M12-12L84,60M6-6l72,72M0,0l72,72M-6,6l72,72M-12,12L60,84M-18,18L54,90M-24,24L48,96M-30,30L42,102M-36,36L36,108"/>
        </g>
      </g>
    </pattern>
    <clipPath id="clippath-60">
      <rect class="cls-1" x="44.46" y="5.47" width="421.2" height="81.4"/>
    </clipPath>
    <clipPath id="clippath-61">
      <rect class="cls-1" y="0" width="72" height="72"/>
    </clipPath>
    <pattern id="Unnamed_Pattern_10" data-name="Unnamed Pattern 10" x="0" y="0" width="72" height="72" patternTransform="translate(0 0) scale(1 -1)" patternUnits="userSpaceOnUse" viewBox="0 0 72 72">
      <g>
        <rect class="cls-1" y="0" width="72" height="72"/>
        <g class="cls-35">
          <rect class="cls-94" y="0" width="72" height="72"/>
          <path class="cls-94" d="M36-36L108,36M30-30L102,42M24-24L96,48M18-18L90,54M12-12L84,60M6-6l72,72M0,0l72,72M-6,6l72,72M-12,12L60,84M-18,18L54,90M-24,24L48,96M-30,30L42,102M-36,36L36,108"/>
          <path class="cls-7" d="M36-36L108,36M30-30L102,42M24-24L96,48M18-18L90,54M12-12L84,60M6-6l72,72M0,0l72,72M-6,6l72,72M-12,12L60,84M-18,18L54,90M-24,24L48,96M-30,30L42,102M-36,36L36,108"/>
        </g>
      </g>
    </pattern>
    <clipPath id="clippath-62">
      <rect class="cls-1" x="44.46" y="5.47" width="421.2" height="81.4"/>
    </clipPath>
    <clipPath id="clippath-63">
      <rect class="cls-1" y="0" width="72" height="72"/>
    </clipPath>
    <pattern id="Unnamed_Pattern_11" data-name="Unnamed Pattern 11" x="0" y="0" width="72" height="72" patternTransform="translate(0 0) scale(1 -1)" patternUnits="userSpaceOnUse" viewBox="0 0 72 72">
      <g>
        <rect class="cls-1" y="0" width="72" height="72"/>
        <g class="cls-42">
          <rect class="cls-94" y="0" width="72" height="72"/>
          <path class="cls-94" d="M36-36L108,36M30-30L102,42M24-24L96,48M18-18L90,54M12-12L84,60M6-6l72,72M0,0l72,72M-6,6l72,72M-12,12L60,84M-18,18L54,90M-24,24L48,96M-30,30L42,102M-36,36L36,108"/>
          <path class="cls-7" d="M36-36L108,36M30-30L102,42M24-24L96,48M18-18L90,54M12-12L84,60M6-6l72,72M0,0l72,72M-6,6l72,72M-12,12L60,84M-18,18L54,90M-24,24L48,96M-30,30L42,102M-36,36L36,108"/>
        </g>
      </g>
    </pattern>
    <clipPath id="clippath-64">
      <rect class="cls-1" x="44.46" y="5.47" width="421.2" height="81.4"/>
    </clipPath>
    <clipPath id="clippath-65">
      <rect class="cls-1" y="0" width="72" height="72"/>
    </clipPath>
    <pattern id="Unnamed_Pattern_12" data-name="Unnamed Pattern 12" x="0" y="0" width="72" height="72" patternTransform="translate(0 0) scale(1 -1)" patternUnits="userSpaceOnUse" viewBox="0 0 72 72">
      <g>
        <rect class="cls-1" y="0" width="72" height="72"/>
        <g class="cls-38">
          <rect class="cls-94" y="0" width="72" height="72"/>
          <path class="cls-94" d="M36-36L108,36M30-30L102,42M24-24L96,48M18-18L90,54M12-12L84,60M6-6l72,72M0,0l72,72M-6,6l72,72M-12,12L60,84M-18,18L54,90M-24,24L48,96M-30,30L42,102M-36,36L36,108"/>
          <path class="cls-7" d="M36-36L108,36M30-30L102,42M24-24L96,48M18-18L90,54M12-12L84,60M6-6l72,72M0,0l72,72M-6,6l72,72M-12,12L60,84M-18,18L54,90M-24,24L48,96M-30,30L42,102M-36,36L36,108"/>
        </g>
      </g>
    </pattern>
    <clipPath id="clippath-66">
      <rect class="cls-1" y="0" width="72" height="72"/>
    </clipPath>
    <pattern id="Unnamed_Pattern_13" data-name="Unnamed Pattern 13" x="0" y="0" width="72" height="72" patternTransform="translate(0 0) scale(1 -1)" patternUnits="userSpaceOnUse" viewBox="0 0 72 72">
      <g>
        <rect class="cls-1" y="0" width="72" height="72"/>
        <g class="cls-41">
          <rect class="cls-92" y="0" width="72" height="72"/>
          <path class="cls-92" d="M36-36L108,36M30-30L102,42M24-24L96,48M18-18L90,54M12-12L84,60M6-6l72,72M0,0l72,72M-6,6l72,72M-12,12L60,84M-18,18L54,90M-24,24L48,96M-30,30L42,102M-36,36L36,108"/>
          <path class="cls-7" d="M36-36L108,36M30-30L102,42M24-24L96,48M18-18L90,54M12-12L84,60M6-6l72,72M0,0l72,72M-6,6l72,72M-12,12L60,84M-18,18L54,90M-24,24L48,96M-30,30L42,102M-36,36L36,108"/>
        </g>
      </g>
    </pattern>
    <clipPath id="clippath-67">
      <rect class="cls-1" y="0" width="72" height="72"/>
    </clipPath>
    <pattern id="Unnamed_Pattern_14" data-name="Unnamed Pattern 14" x="0" y="0" width="72" height="72" patternTransform="translate(0 0) scale(1 -1)" patternUnits="userSpaceOnUse" viewBox="0 0 72 72">
      <g>
        <rect class="cls-1" y="0" width="72" height="72"/>
        <g class="cls-36">
          <rect class="cls-94" y="0" width="72" height="72"/>
          <path class="cls-94" d="M36-36L108,36M30-30L102,42M24-24L96,48M18-18L90,54M12-12L84,60M6-6l72,72M0,0l72,72M-6,6l72,72M-12,12L60,84M-18,18L54,90M-24,24L48,96M-30,30L42,102M-36,36L36,108"/>
          <path class="cls-7" d="M36-36L108,36M30-30L102,42M24-24L96,48M18-18L90,54M12-12L84,60M6-6l72,72M0,0l72,72M-6,6l72,72M-12,12L60,84M-18,18L54,90M-24,24L48,96M-30,30L42,102M-36,36L36,108"/>
        </g>
      </g>
    </pattern>
  </defs>
  <rect class="cls-15" width="468" height="136.8"/>
  <rect class="cls-15" x="44.46" y="5.47" width="421.2" height="81.4"/>
  <g class="cls-100">
    <rect class="cls-93" x="50.18" y="43.63" width="6.53" height="43.23"/>
    <rect class="cls-5" x="50.18" y="43.63" width="6.53" height="43.23"/>
  </g>
  <g class="cls-83">
    <rect class="cls-93" x="120.38" y="32.46" width="6.53" height="54.41"/>
    <rect class="cls-5" x="120.38" y="32.46" width="6.53" height="54.41"/>
  </g>
  <g class="cls-86">
    <rect class="cls-93" x="190.58" y="44.85" width="6.53" height="42.02"/>
    <rect class="cls-5" x="190.58" y="44.85" width="6.53" height="42.02"/>
  </g>
  <g class="cls-84">
    <rect class="cls-93" x="260.78" y="20.16" width="6.53" height="66.71"/>
    <rect class="cls-5" x="260.78" y="20.16" width="6.53" height="66.71"/>
  </g>
  <g class="cls-85">
    <rect class="cls-93" x="330.98" y="38.81" width="6.53" height="48.05"/>
    <rect class="cls-5" x="330.98" y="38.81" width="6.53" height="48.05"/>
  </g>
  <g class="cls-91">
    <rect class="cls-93" x="401.18" y="35.98" width="6.53" height="50.88"/>
    <rect class="cls-5" x="401.18" y="35.98" width="6.53" height="50.88"/>
  </g>
  <g class="cls-88">
    <rect class="cls-8" x="56.71" y="34.55" width="6.53" height="52.31"/>
    <rect class="cls-5" x="56.71" y="34.55" width="6.53" height="52.31"/>
  </g>
  <g class="cls-87">
    <rect class="cls-8" x="126.91" y="17.53" width="6.53" height="69.34"/>
    <rect class="cls-5" x="126.91" y="17.53" width="6.53" height="69.34"/>
  </g>
  <g class="cls-90">
    <rect class="cls-8" x="197.11" y="37.93" width="6.53" height="48.94"/>
    <rect class="cls-5" x="197.11" y="37.93" width="6.53" height="48.94"/>
  </g>
  <g class="cls-89">
    <rect class="cls-8" x="267.31" y="7.29" width="6.53" height="79.58"/>
    <rect class="cls-5" x="267.31" y="7.29" width="6.53" height="79.58"/>
  </g>
  <g class="cls-30">
    <rect class="cls-8" x="337.51" y="23.37" width="6.53" height="63.5"/>
    <rect class="cls-5" x="337.51" y="23.37" width="6.53" height="63.5"/>
  </g>
  <g class="cls-27">
    <rect class="cls-8" x="407.71" y="24.13" width="6.53" height="62.73"/>
    <rect class="cls-5" x="407.71" y="24.13" width="6.53" height="62.73"/>
  </g>
  <g class="cls-34">
    <rect class="cls-14" x="63.24" y="8.27" width="6.53" height="78.6"/>
    <rect class="cls-5" x="63.24" y="8.27" width="6.53" height="78.6"/>
  </g>
  <g class="cls-32">
    <rect class="cls-14" x="133.44" y="10.75" width="6.53" height="76.12"/>
    <rect class="cls-5" x="133.44" y="10.75" width="6.53" height="76.12"/>
  </g>
  <g class="cls-33">
    <rect class="cls-14" x="203.64" y="7.93" width="6.53" height="78.94"/>
    <rect class="cls-5" x="203.64" y="7.93" width="6.53" height="78.94"/>
  </g>
  <g class="cls-31">
    <rect class="cls-14" x="273.84" y="17.83" width="6.53" height="69.04"/>
    <rect class="cls-5" x="273.84" y="17.83" width="6.53" height="69.04"/>
  </g>
  <g class="cls-28">
    <rect class="cls-14" x="344.04" y="23.93" width="6.53" height="62.94"/>
    <rect class="cls-5" x="344.04" y="23.93" width="6.53" height="62.94"/>
  </g>
  <g class="cls-25">
    <rect class="cls-14" x="414.24" y="13.74" width="6.53" height="73.13"/>
    <rect class="cls-5" x="414.24" y="13.74" width="6.53" height="73.13"/>
  </g>
  <g class="cls-29">
    <rect class="cls-16" x="69.77" y="23.91" width="6.53" height="62.96"/>
    <rect class="cls-5" x="69.77" y="23.91" width="6.53" height="62.96"/>
  </g>
  <g class="cls-26">
    <rect class="cls-16" x="139.97" y="17.79" width="6.53" height="69.08"/>
    <rect class="cls-5" x="139.97" y="17.79" width="6.53" height="69.08"/>
  </g>
  <g class="cls-67">
    <rect class="cls-16" x="210.17" y="21.1" width="6.53" height="65.77"/>
    <rect class="cls-5" x="210.17" y="21.1" width="6.53" height="65.77"/>
  </g>
  <g class="cls-68">
    <rect class="cls-16" x="280.37" y="7.05" width="6.53" height="79.82"/>
    <rect class="cls-5" x="280.37" y="7.05" width="6.53" height="79.82"/>
  </g>
  <g class="cls-69">
    <rect class="cls-16" x="350.57" y="22.26" width="6.53" height="64.6"/>
    <rect class="cls-5" x="350.57" y="22.26" width="6.53" height="64.6"/>
  </g>
  <g class="cls-70">
    <rect class="cls-16" x="420.77" y="18.42" width="6.53" height="68.45"/>
    <rect class="cls-5" x="420.77" y="18.42" width="6.53" height="68.45"/>
  </g>
  <g class="cls-71">
    <rect class="cls-11" x="76.3" y="26.95" width="6.53" height="59.92"/>
    <rect class="cls-5" x="76.3" y="26.95" width="6.53" height="59.92"/>
  </g>
  <g class="cls-72">
    <rect class="cls-11" x="146.5" y="26.98" width="6.53" height="59.88"/>
    <rect class="cls-5" x="146.5" y="26.98" width="6.53" height="59.88"/>
  </g>
  <g class="cls-65">
    <rect class="cls-11" x="216.7" y="17.52" width="6.53" height="69.35"/>
    <rect class="cls-5" x="216.7" y="17.52" width="6.53" height="69.35"/>
  </g>
  <g class="cls-63">
    <rect class="cls-11" x="286.9" y="51.15" width="6.53" height="35.72"/>
    <rect class="cls-5" x="286.9" y="51.15" width="6.53" height="35.72"/>
  </g>
  <g class="cls-66">
    <rect class="cls-11" x="357.1" y="14.94" width="6.53" height="71.93"/>
    <rect class="cls-5" x="357.1" y="14.94" width="6.53" height="71.93"/>
  </g>
  <g class="cls-64">
    <rect class="cls-11" x="427.3" y="27.51" width="6.53" height="59.36"/>
    <rect class="cls-5" x="427.3" y="27.51" width="6.53" height="59.36"/>
  </g>
  <g class="cls-59">
    <rect class="cls-13" x="82.82" y="47.77" width="6.53" height="39.1"/>
    <rect class="cls-5" x="82.82" y="47.77" width="6.53" height="39.1"/>
  </g>
  <g class="cls-53">
    <rect class="cls-13" x="153.02" y="46.9" width="6.53" height="39.97"/>
    <rect class="cls-5" x="153.02" y="46.9" width="6.53" height="39.97"/>
  </g>
  <g class="cls-54">
    <rect class="cls-13" x="223.22" y="39.06" width="6.53" height="47.8"/>
    <rect class="cls-5" x="223.22" y="39.06" width="6.53" height="47.8"/>
  </g>
  <g class="cls-55">
    <rect class="cls-13" x="293.42" y="42.99" width="6.53" height="43.88"/>
    <rect class="cls-5" x="293.42" y="42.99" width="6.53" height="43.88"/>
  </g>
  <g class="cls-56">
    <rect class="cls-13" x="363.62" y="44.94" width="6.53" height="41.93"/>
    <rect class="cls-5" x="363.62" y="44.94" width="6.53" height="41.93"/>
  </g>
  <g class="cls-57">
    <rect class="cls-13" x="433.82" y="44.33" width="6.53" height="42.54"/>
    <rect class="cls-5" x="433.82" y="44.33" width="6.53" height="42.54"/>
  </g>
  <g class="cls-60">
    <rect class="cls-12" x="89.35" y="48.6" width="6.53" height="38.26"/>
    <rect class="cls-5" x="89.35" y="48.6" width="6.53" height="38.26"/>
  </g>
  <g class="cls-61">
    <rect class="cls-12" x="159.55" y="26.27" width="6.53" height="60.6"/>
    <rect class="cls-5" x="159.55" y="26.27" width="6.53" height="60.6"/>
  </g>
  <g class="cls-62">
    <rect class="cls-12" x="229.75" y="12.92" width="6.53" height="73.95"/>
    <rect class="cls-5" x="229.75" y="12.92" width="6.53" height="73.95"/>
  </g>
  <g class="cls-58">
    <rect class="cls-12" x="299.95" y="34.55" width="6.53" height="52.32"/>
    <rect class="cls-5" x="299.95" y="34.55" width="6.53" height="52.32"/>
  </g>
  <g class="cls-79">
    <rect class="cls-12" x="370.15" y="40.77" width="6.53" height="46.1"/>
    <rect class="cls-5" x="370.15" y="40.77" width="6.53" height="46.1"/>
  </g>
  <g class="cls-73">
    <rect class="cls-12" x="440.35" y="32.62" width="6.53" height="54.25"/>
    <rect class="cls-5" x="440.35" y="32.62" width="6.53" height="54.25"/>
  </g>
  <g class="cls-74">
    <rect class="cls-9" x="95.88" y="5.73" width="6.53" height="81.14"/>
    <rect class="cls-4" x="95.88" y="5.73" width="6.53" height="81.14"/>
  </g>
  <g class="cls-76">
    <rect class="cls-19" x="166.08" y="10.93" width="6.53" height="75.93"/>
    <rect class="cls-4" x="166.08" y="10.93" width="6.53" height="75.93"/>
  </g>
  <g class="cls-80">
    <rect class="cls-18" x="236.28" y="7.51" width="6.53" height="79.36"/>
    <rect class="cls-4" x="236.28" y="7.51" width="6.53" height="79.36"/>
  </g>
  <g class="cls-82">
    <rect class="cls-17" x="306.48" y="5.9" width="6.53" height="80.97"/>
    <rect class="cls-4" x="306.48" y="5.9" width="6.53" height="80.97"/>
  </g>
  <g class="cls-43">
    <rect class="cls-23" x="376.68" y="5.88" width="6.53" height="80.99"/>
    <rect class="cls-4" x="376.68" y="5.88" width="6.53" height="80.99"/>
  </g>
  <g class="cls-45">
    <rect class="cls-22" x="446.88" y="7.19" width="6.53" height="79.68"/>
    <rect class="cls-4" x="446.88" y="7.19" width="6.53" height="79.68"/>
  </g>
  <g class="cls-47">
    <rect class="cls-21" x="102.41" y="5.58" width="6.53" height="81.29"/>
    <rect class="cls-4" x="102.41" y="5.58" width="6.53" height="81.29"/>
  </g>
  <g class="cls-48">
    <rect class="cls-20" x="172.61" y="7.64" width="6.53" height="79.23"/>
    <rect class="cls-4" x="172.61" y="7.64" width="6.53" height="79.23"/>
  </g>
  <g class="cls-51">
    <rect class="cls-24" x="242.81" y="6.63" width="6.53" height="80.24"/>
    <rect class="cls-4" x="242.81" y="6.63" width="6.53" height="80.24"/>
  </g>
  <g class="cls-37">
    <rect class="cls-98" x="313.01" y="5.55" width="6.53" height="81.32"/>
    <rect class="cls-4" x="313.01" y="5.55" width="6.53" height="81.32"/>
  </g>
  <g class="cls-39">
    <rect class="cls-97" x="383.21" y="5.52" width="6.53" height="81.35"/>
    <rect class="cls-4" x="383.21" y="5.52" width="6.53" height="81.35"/>
  </g>
  <g class="cls-40">
    <rect class="cls-96" x="453.41" y="6.18" width="6.53" height="80.69"/>
    <rect class="cls-4" x="453.41" y="6.18" width="6.53" height="80.69"/>
  </g>
  <line class="cls-3" x1="79.56" y1="86.87" x2="79.56" y2="90.37"/>
  <polygon points="52.95 94.17 53.94 94.17 53.94 100.63 57.49 100.63 57.49 101.46 52.95 101.46 52.95 94.17"/>
  <path d="M62.76,98.34v3.12h-.9v-.83c-.21.34-.47.58-.77.73-.3.15-.68.23-1.12.23-.56,0-1.01-.15-1.34-.46-.33-.31-.49-.73-.49-1.26,0-.61.2-1.07.62-1.39.41-.31,1.02-.47,1.84-.47h1.26v-.09c0-.41-.14-.73-.41-.96-.27-.22-.65-.34-1.14-.34-.32,0-.62.04-.92.12-.3.08-.58.19-.85.33v-.83c.32-.12.64-.22.95-.28.31-.06.61-.1.91-.1.79,0,1.38.21,1.77.62s.59,1.03.59,1.86ZM60.97,98.71c-.73,0-1.23.09-1.51.25-.28.17-.42.45-.42.85,0,.32.1.58.31.76.21.19.5.28.86.28.5,0,.9-.17,1.2-.53.3-.35.45-.82.45-1.41v-.2h-.89Z"/>
  <path d="M65.5,94.44v1.55h1.85v.7h-1.85v2.97c0,.45.06.74.18.86.12.13.37.19.75.19h.92v.75h-.92c-.7,0-1.18-.13-1.44-.39-.26-.26-.39-.73-.39-1.41v-2.97h-.66v-.7h.66v-1.55h.9Z"/>
  <path d="M72.31,98.24c-.01-.49-.15-.88-.41-1.18-.27-.29-.63-.44-1.07-.44-.5,0-.9.15-1.2.43-.3.28-.48.68-.52,1.19h3.2ZM73.21,98.5v.44h-4.13c.04.62.22,1.1.56,1.42.33.32.79.48,1.39.48.34,0,.68-.04,1-.12.32-.08.65-.21.97-.39v.85c-.32.14-.65.25-.99.31-.34.06-.69.1-1.03.1-.88,0-1.57-.25-2.08-.75-.51-.5-.76-1.19-.76-2.06s.24-1.6.72-2.13c.48-.52,1.14-.79,1.96-.79.74,0,1.32.24,1.75.71.42.48.64,1.12.64,1.93Z"/>
  <path d="M79.23,98.16v3.3h-.9v-3.27c0-.52-.11-.9-.31-1.16-.2-.26-.5-.39-.9-.39-.49,0-.87.16-1.15.47-.28.31-.42.73-.42,1.26v3.09h-.9v-5.47h.9v.85c.21-.32.46-.57.76-.73.29-.16.63-.25,1.01-.25.62,0,1.1.2,1.42.59.32.39.49.96.49,1.71Z"/>
  <path d="M81.91,94.44v1.55h1.85v.7h-1.85v2.97c0,.45.06.74.18.86.12.13.37.19.75.19h.92v.75h-.92c-.7,0-1.18-.13-1.44-.39-.26-.26-.39-.73-.39-1.41v-2.97h-.66v-.7h.66v-1.55h.9Z"/>
  <path d="M88.16,94.17h2.03c1.41,0,2.45.3,3.11.88.66.59.99,1.51.99,2.76s-.34,2.18-1,2.77-1.7.88-3.1.88h-2.03v-7.29ZM89.15,94.98v5.67h1.19c1,0,1.74-.22,2.21-.68.46-.46.7-1.18.7-2.16s-.24-1.69-.7-2.15c-.47-.45-1.21-.68-2.21-.68h-1.19Z"/>
  <path d="M95.82,93.86h.9v1.14h-.9v-1.14ZM95.82,95.99h.9v5.47h-.9v-5.47Z"/>
  <path d="M101.37,93.86v.75h-.86c-.32,0-.55.07-.67.2-.13.13-.19.36-.19.7v.48h1.48v.7h-1.48v4.77h-.9v-4.77h-.86v-.7h.86v-.38c0-.6.14-1.05.42-1.33s.73-.42,1.35-.42h.85Z"/>
  <path d="M104.89,93.86v.75h-.86c-.32,0-.55.07-.67.2-.13.13-.19.36-.19.7v.48h1.48v.7h-1.48v4.77h-.9v-4.77h-.86v-.7h.86v-.38c0-.6.14-1.05.42-1.33s.73-.42,1.35-.42h.85Z"/>
  <rect x="105.05" y="100.22" width="1.03" height="1.24"/>
  <line class="cls-3" x1="149.76" y1="86.87" x2="149.76" y2="90.37"/>
  <path d="M127.58,94.17h2.23c.81,0,1.43.19,1.85.56s.63.91.63,1.62-.21,1.27-.63,1.63c-.42.37-1.04.55-1.85.55h-1.24v2.93h-.99v-7.29ZM128.57,94.98v2.74h1.24c.46,0,.81-.11,1.06-.35s.38-.58.38-1.02-.13-.77-.38-1.01c-.25-.24-.6-.36-1.06-.36h-1.24Z"/>
  <path d="M133.35,93.86h.9v1.14h-.9v-1.14ZM133.35,95.99h.9v5.47h-.9v-5.47Z"/>
  <polygon points="140.68 95.99 138.7 98.65 140.78 101.46 139.72 101.46 138.13 99.31 136.54 101.46 135.48 101.46 137.6 98.6 135.66 95.99 136.72 95.99 138.17 97.94 139.62 95.99 140.68 95.99"/>
  <path d="M145.54,98.24c0-.49-.15-.88-.41-1.18-.27-.29-.63-.44-1.07-.44-.5,0-.9.15-1.2.43-.3.28-.48.68-.52,1.19h3.2ZM146.44,98.5v.44h-4.13c.04.62.22,1.1.56,1.42.33.32.79.48,1.39.48.34,0,.68-.04,1-.12s.65-.21.97-.39v.85c-.32.14-.65.25-.99.31-.34.06-.69.1-1.03.1-.88,0-1.57-.25-2.08-.75-.51-.5-.76-1.19-.76-2.06s.24-1.6.72-2.13c.48-.52,1.14-.79,1.96-.79.74,0,1.32.24,1.75.71.42.48.64,1.12.64,1.93Z"/>
  <rect x="147.91" y="93.86" width=".9" height="7.6"/>
  <path d="M153.91,94.17h2.03c1.41,0,2.45.3,3.11.88.66.59.99,1.51.99,2.76s-.34,2.18-1,2.77-1.7.88-3.1.88h-2.03v-7.29ZM154.9,94.98v5.67h1.19c1,0,1.74-.22,2.21-.68.46-.46.7-1.18.7-2.16s-.24-1.69-.7-2.15c-.47-.45-1.21-.68-2.21-.68h-1.19Z"/>
  <path d="M161.57,93.86h.9v1.14h-.9v-1.14ZM161.57,95.99h.9v5.47h-.9v-5.47Z"/>
  <path d="M167.12,93.86v.75h-.86c-.32,0-.55.07-.67.2-.13.13-.19.36-.19.7v.48h1.48v.7h-1.48v4.77h-.9v-4.77h-.86v-.7h.86v-.38c0-.6.14-1.05.42-1.33s.73-.42,1.35-.42h.85Z"/>
  <path d="M170.64,93.86v.75h-.86c-.32,0-.55.07-.67.2-.13.13-.19.36-.19.7v.48h1.48v.7h-1.48v4.77h-.9v-4.77h-.86v-.7h.86v-.38c0-.6.14-1.05.42-1.33s.73-.42,1.35-.42h.85Z"/>
  <rect x="170.8" y="100.22" width="1.03" height="1.24"/>
  <line class="cls-3" x1="219.96" y1="86.87" x2="219.96" y2="90.37"/>
  <path d="M196.49,94.73v1.04c-.34-.3-.69-.53-1.07-.69-.38-.15-.77-.23-1.19-.23-.84,0-1.48.26-1.92.77-.44.51-.66,1.24-.66,2.2s.22,1.7.66,2.21c.44.51,1.08.76,1.92.76.42,0,.81-.07,1.19-.23.38-.15.73-.38,1.07-.69v1.03c-.35.24-.72.41-1.1.52-.38.11-.79.17-1.22.17-1.1,0-1.97-.33-2.61-1-.64-.67-.95-1.59-.95-2.77s.31-2.09.95-2.77c.64-.67,1.51-1.01,2.61-1.01.44,0,.85.06,1.23.17.38.12.75.29,1.09.52Z"/>
  <path d="M200.09,95.86c.78,0,1.39.26,1.84.76.44.51.67,1.21.67,2.11s-.23,1.6-.67,2.1c-.45.51-1.06.76-1.84.76s-1.41-.25-1.85-.76c-.44-.5-.66-1.2-.66-2.1s.22-1.6.66-2.11c.44-.5,1.06-.76,1.85-.76ZM200.09,96.62c-.48,0-.86.19-1.14.57s-.42.89-.42,1.54.13,1.17.41,1.55.66.56,1.15.56.86-.18,1.14-.56.42-.89.42-1.55-.14-1.16-.42-1.54-.66-.57-1.14-.57Z"/>
  <path d="M208.35,97.04c.22-.4.49-.69.8-.89.31-.19.68-.29,1.11-.29.56,0,1,.2,1.31.6s.47.97.47,1.7v3.3h-.9v-3.27c0-.52-.1-.91-.28-1.17-.19-.25-.47-.38-.85-.38-.47,0-.84.16-1.11.47-.27.31-.4.73-.4,1.26v3.09h-.9v-3.27c0-.52-.1-.91-.28-1.17-.19-.25-.48-.38-.86-.38-.46,0-.83.16-1.1.47-.27.31-.4.73-.4,1.26v3.09h-.9v-5.47h.9v.85c.2-.33.45-.58.74-.74.28-.16.62-.24,1.02-.24s.73.1,1.01.3.48.5.62.88Z"/>
  <path d="M218.09,97.04c.22-.4.49-.69.8-.89.31-.19.68-.29,1.11-.29.56,0,1,.2,1.31.6s.47.97.47,1.7v3.3h-.9v-3.27c0-.52-.1-.91-.28-1.17-.19-.25-.47-.38-.85-.38-.47,0-.84.16-1.11.47-.27.31-.4.73-.4,1.26v3.09h-.9v-3.27c0-.52-.1-.91-.28-1.17-.19-.25-.48-.38-.86-.38-.46,0-.83.16-1.1.47-.27.31-.4.73-.4,1.26v3.09h-.9v-5.47h.9v.85c.2-.33.45-.58.74-.74.28-.16.62-.24,1.02-.24s.73.1,1.01.3.48.5.62.88Z"/>
  <path d="M227.35,98.24c0-.49-.15-.88-.41-1.18-.27-.29-.63-.44-1.07-.44-.5,0-.9.15-1.2.43-.3.28-.48.68-.52,1.19h3.2ZM228.25,98.5v.44h-4.13c.04.62.22,1.1.56,1.42.33.32.79.48,1.39.48.34,0,.68-.04,1-.12s.65-.21.97-.39v.85c-.32.14-.65.25-.99.31-.34.06-.69.1-1.03.1-.88,0-1.57-.25-2.08-.75-.51-.5-.76-1.19-.76-2.06s.24-1.6.72-2.13c.48-.52,1.14-.79,1.96-.79.74,0,1.32.24,1.75.71.42.48.64,1.12.64,1.93Z"/>
  <path d="M232.89,96.83c-.1-.06-.21-.1-.33-.13-.12-.02-.25-.04-.39-.04-.51,0-.9.17-1.17.5-.28.33-.41.8-.41,1.42v2.88h-.9v-5.47h.9v.85c.18-.33.43-.58.73-.74.3-.16.67-.24,1.11-.24.06,0,.13,0,.21,0,.07,0,.15.02.25.04v.92Z"/>
  <path d="M237.55,96.2v.84c-.26-.14-.51-.24-.77-.31s-.51-.11-.77-.11c-.58,0-1.04.19-1.36.56-.32.37-.48.89-.48,1.55s.16,1.19.48,1.56c.32.37.78.55,1.36.55.26,0,.51-.03.77-.1s.51-.18.77-.32v.83c-.26.12-.52.21-.78.26-.27.05-.56.08-.86.08-.82,0-1.48-.25-1.96-.77-.49-.51-.73-1.21-.73-2.09s.24-1.59.73-2.1c.49-.51,1.16-.77,2.02-.77.28,0,.55.03.81.09.26.06.52.14.77.25Z"/>
  <path d="M239.12,93.86h.9v1.14h-.9v-1.14ZM239.12,95.99h.9v5.47h-.9v-5.47Z"/>
  <path d="M246.18,98.34v3.12h-.9v-.83c-.21.34-.47.58-.77.73-.3.15-.68.23-1.12.23-.56,0-1.01-.15-1.34-.46-.33-.31-.49-.73-.49-1.26,0-.61.2-1.07.62-1.39.41-.31,1.02-.47,1.84-.47h1.26v-.09c0-.41-.14-.73-.41-.96-.27-.22-.65-.34-1.14-.34-.32,0-.62.04-.92.12-.3.08-.58.19-.85.33v-.83c.32-.12.64-.22.95-.28.31-.06.61-.1.91-.1.79,0,1.38.21,1.77.62s.59,1.03.59,1.86ZM244.39,98.71c-.73,0-1.23.09-1.51.25-.28.17-.42.45-.42.85,0,.32.1.58.31.76.21.19.5.28.86.28.5,0,.9-.17,1.2-.53.3-.35.45-.82.45-1.41v-.2h-.89Z"/>
  <rect x="248.03" y="93.86" width=".9" height="7.6"/>
  <line class="cls-3" x1="290.16" y1="86.87" x2="290.16" y2="90.37"/>
  <path d="M285.07,100.42v-1.96h-1.61v-.81h2.59v3.13c-.38.28-.8.48-1.26.61-.46.13-.95.2-1.47.2-1.14,0-2.04-.33-2.68-.99-.64-.66-.96-1.59-.96-2.78s.32-2.11.96-2.78c.64-.66,1.54-1,2.68-1,.47,0,.92.06,1.35.18.43.12.83.29,1.19.51v1.05c-.37-.3-.76-.53-1.17-.69s-.84-.24-1.29-.24c-.9,0-1.57.25-2.01.75-.45.5-.67,1.24-.67,2.22s.22,1.73.67,2.23c.44.5,1.11.74,2.01.74.34,0,.65-.03.93-.09.28-.06.52-.15.74-.28Z"/>
  <path d="M289.73,94.17h1.12l2.78,7.29h-1.03l-.66-1.87h-3.29l-.66,1.87h-1.04l2.78-7.29ZM290.29,95.14l-1.34,3.63h2.68l-1.34-3.63Z"/>
  <polygon points="294.69 94.17 296.02 94.17 299.25 100.27 299.25 94.17 300.21 94.17 300.21 101.46 298.88 101.46 295.65 95.36 295.65 101.46 294.69 101.46 294.69 94.17"/>
  <line class="cls-3" x1="360.36" y1="86.87" x2="360.36" y2="90.37"/>
  <path d="M350.1,94.04c1.02,0,1.83.35,2.45,1.03.61.68.92,1.6.92,2.75s-.31,2.07-.92,2.75c-.62.68-1.43,1.02-2.45,1.02s-1.85-.34-2.46-1.02c-.62-.68-.92-1.59-.92-2.75s.3-2.07.92-2.75c.61-.68,1.43-1.03,2.46-1.03ZM350.1,94.84c-.72,0-1.29.27-1.71.8-.42.54-.63,1.26-.63,2.18s.21,1.65.63,2.18c.42.54.99.8,1.71.8s1.28-.26,1.7-.8c.42-.53.63-1.26.63-2.18s-.21-1.64-.63-2.18c-.42-.53-.99-.8-1.7-.8Z"/>
  <path d="M355.86,94.44v1.55h1.85v.7h-1.85v2.97c0,.45.06.74.18.86.12.13.37.19.75.19h.92v.75h-.92c-.7,0-1.18-.13-1.44-.39-.26-.26-.39-.73-.39-1.41v-2.97h-.66v-.7h.66v-1.55h.9Z"/>
  <path d="M363.44,98.16v3.3h-.9v-3.27c0-.52-.11-.9-.31-1.16s-.5-.39-.9-.39c-.49,0-.87.16-1.15.47-.28.31-.42.73-.42,1.26v3.09h-.9v-7.6h.9v2.98c.21-.32.46-.57.76-.73.29-.16.63-.25,1.01-.25.62,0,1.1.2,1.42.59.32.39.49.96.49,1.71Z"/>
  <path d="M369.01,98.24c-.01-.49-.15-.88-.41-1.18-.27-.29-.63-.44-1.07-.44-.5,0-.9.15-1.2.43-.3.28-.48.68-.52,1.19h3.2ZM369.91,98.5v.44h-4.13c.04.62.22,1.1.56,1.42.33.32.79.48,1.39.48.34,0,.68-.04,1-.12.32-.08.65-.21.97-.39v.85c-.32.14-.65.25-.99.31-.34.06-.69.1-1.03.1-.88,0-1.57-.25-2.08-.75s-.76-1.19-.76-2.06.24-1.6.72-2.13c.48-.52,1.14-.79,1.96-.79.74,0,1.32.24,1.75.71.42.48.64,1.12.64,1.93Z"/>
  <path d="M374.55,96.83c-.1-.06-.21-.1-.33-.13-.12-.02-.25-.04-.39-.04-.51,0-.9.17-1.17.5-.28.33-.41.8-.41,1.42v2.88h-.9v-5.47h.9v.85c.18-.33.43-.58.73-.74.3-.16.67-.24,1.11-.24.06,0,.13,0,.21,0,.07,0,.15.02.25.04v.92Z"/>
  <line class="cls-3" x1="430.56" y1="86.87" x2="430.56" y2="90.37"/>
  <polygon points="417.92 94.17 419.39 94.17 421.24 99.13 423.11 94.17 424.58 94.17 424.58 101.46 423.62 101.46 423.62 95.06 421.74 100.06 420.76 100.06 418.88 95.06 418.88 101.46 417.92 101.46 417.92 94.17"/>
  <path d="M430.29,98.24c-.01-.49-.15-.88-.41-1.18-.27-.29-.63-.44-1.07-.44-.5,0-.9.15-1.2.43-.3.28-.48.68-.52,1.19h3.2ZM431.19,98.5v.44h-4.13c.04.62.22,1.1.56,1.42.33.32.79.48,1.39.48.34,0,.68-.04,1-.12.32-.08.65-.21.97-.39v.85c-.32.14-.65.25-.99.31-.34.06-.69.1-1.03.1-.88,0-1.57-.25-2.08-.75s-.76-1.19-.76-2.06.24-1.6.72-2.13c.48-.52,1.14-.79,1.96-.79.74,0,1.32.24,1.75.71.42.48.64,1.12.64,1.93Z"/>
  <path d="M436.94,98.34v3.12h-.9v-.83c-.21.34-.47.58-.77.73-.3.15-.68.23-1.12.23-.56,0-1.01-.15-1.34-.46-.33-.31-.49-.73-.49-1.26,0-.61.2-1.07.62-1.39.41-.31,1.02-.47,1.84-.47h1.26v-.09c0-.41-.14-.73-.41-.96-.27-.22-.65-.34-1.14-.34-.32,0-.62.04-.92.12-.3.08-.58.19-.85.33v-.83c.32-.12.64-.22.95-.28.31-.06.61-.1.91-.1.79,0,1.38.21,1.77.62.39.41.59,1.03.59,1.86ZM435.15,98.71c-.73,0-1.23.09-1.51.25-.28.17-.42.45-.42.85,0,.32.1.58.31.76.21.19.5.28.86.28.5,0,.9-.17,1.2-.53.3-.35.45-.82.45-1.41v-.2h-.89Z"/>
  <path d="M443.34,98.16v3.3h-.9v-3.27c0-.52-.11-.9-.31-1.16s-.5-.39-.9-.39c-.49,0-.87.16-1.15.47-.28.31-.42.73-.42,1.26v3.09h-.9v-5.47h.9v.85c.21-.32.46-.57.76-.73.29-.16.63-.25,1.01-.25.62,0,1.1.2,1.42.59.32.39.49.96.49,1.71Z"/>
  <line class="cls-3" x1="44.46" y1="86.87" x2="40.96" y2="86.87"/>
  <path d="M18.37,83.24c.81,0,1.43.33,1.87.97.43.65.65,1.59.65,2.81s-.22,2.17-.65,2.81c-.44.64-1.06.96-1.88.96s-1.44-.32-1.87-.96c-.43-.64-.64-1.58-.64-2.81s.21-2.16.64-2.81c.43-.64,1.06-.97,1.88-.97ZM18.37,84.02c-.51,0-.89.25-1.15.75s-.38,1.25-.38,2.25.12,1.75.38,2.25.64.75,1.15.75.89-.25,1.15-.75c.25-.5.38-1.25.38-2.25s-.13-1.75-.38-2.25c-.26-.5-.64-.75-1.15-.75Z"/>
  <rect x="22.62" y="89.42" width="1.03" height="1.24"/>
  <path d="M27.91,83.24c.81,0,1.43.33,1.87.97.43.65.65,1.59.65,2.81s-.22,2.17-.65,2.81c-.44.64-1.06.96-1.88.96s-1.44-.32-1.87-.96c-.43-.64-.64-1.58-.64-2.81s.21-2.16.64-2.81c.43-.64,1.06-.97,1.88-.97ZM27.91,84.02c-.51,0-.89.25-1.15.75s-.38,1.25-.38,2.25.12,1.75.38,2.25.64.75,1.15.75.89-.25,1.15-.75c.25-.5.38-1.25.38-2.25s-.13-1.75-.38-2.25c-.26-.5-.64-.75-1.15-.75Z"/>
  <path d="M34.27,83.24c.81,0,1.43.33,1.87.97.43.65.65,1.59.65,2.81s-.22,2.17-.65,2.81c-.44.64-1.06.96-1.88.96s-1.44-.32-1.87-.96c-.43-.64-.64-1.58-.64-2.81s.21-2.16.64-2.81c.43-.64,1.06-.97,1.88-.97ZM34.27,84.02c-.51,0-.89.25-1.15.75-.26.5-.38,1.25-.38,2.25s.12,1.75.38,2.25c.26.5.64.75,1.15.75s.89-.25,1.15-.75c.25-.5.38-1.25.38-2.25s-.13-1.75-.38-2.25c-.26-.5-.64-.75-1.15-.75Z"/>
  <line class="cls-3" x1="44.46" y1="66.52" x2="40.96" y2="66.52"/>
  <path d="M18.37,62.9c.81,0,1.43.33,1.87.97.43.65.65,1.59.65,2.81s-.22,2.17-.65,2.81c-.44.64-1.06.96-1.88.96s-1.44-.32-1.87-.96-.64-1.58-.64-2.81.21-2.16.64-2.81c.43-.64,1.06-.97,1.88-.97ZM18.37,63.68c-.51,0-.89.25-1.15.75s-.38,1.25-.38,2.25.12,1.75.38,2.25.64.75,1.15.75.89-.25,1.15-.75c.25-.5.38-1.25.38-2.25s-.13-1.75-.38-2.25c-.26-.5-.64-.75-1.15-.75Z"/>
  <rect x="22.62" y="69.08" width="1.03" height="1.24"/>
  <path d="M26.65,69.49h3.44v.83h-4.63v-.83c.37-.38.88-.9,1.53-1.56.64-.65,1.05-1.07,1.22-1.26.32-.35.54-.65.66-.9.12-.24.19-.49.19-.73,0-.38-.14-.7-.41-.94s-.62-.37-1.06-.37c-.31,0-.64.06-.98.16-.34.11-.71.27-1.1.49v-1c.4-.16.77-.28,1.11-.36.34-.08.66-.12.95-.12.75,0,1.35.19,1.8.57.45.38.68.88.68,1.51,0,.3-.06.59-.17.85-.11.27-.31.59-.61.95-.08.1-.34.37-.78.82-.44.45-1.05,1.08-1.84,1.89Z"/>
  <path d="M32.17,63.03h3.87v.83h-2.97v1.79c.14-.05.29-.09.43-.11.14-.02.29-.04.43-.04.81,0,1.45.23,1.93.67.48.45.72,1.05.72,1.81s-.25,1.4-.74,1.83c-.49.43-1.18.64-2.06.64-.31,0-.62-.03-.94-.07-.32-.05-.64-.12-.98-.23v-.99c.29.16.59.28.91.36.31.08.64.11.99.11.56,0,1.01-.14,1.34-.44.32-.3.49-.7.49-1.21s-.17-.9-.49-1.2c-.33-.3-.78-.45-1.34-.45-.26,0-.53.03-.79.09-.26.06-.53.15-.8.27v-3.66Z"/>
  <line class="cls-3" x1="44.46" y1="46.17" x2="40.96" y2="46.17"/>
  <path d="M18.37,42.55c.81,0,1.43.33,1.87.97.43.65.65,1.59.65,2.81s-.22,2.17-.65,2.81c-.44.64-1.06.96-1.88.96s-1.44-.32-1.87-.96-.64-1.58-.64-2.81.21-2.16.64-2.81c.43-.64,1.06-.97,1.88-.97ZM18.37,43.33c-.51,0-.89.25-1.15.75s-.38,1.25-.38,2.25.12,1.75.38,2.25.64.75,1.15.75.89-.25,1.15-.75c.25-.5.38-1.25.38-2.25s-.13-1.75-.38-2.25c-.26-.5-.64-.75-1.15-.75Z"/>
  <rect x="22.62" y="48.73" width="1.03" height="1.24"/>
  <path d="M25.81,42.68h3.87v.83h-2.97v1.79c.14-.05.29-.09.43-.11.14-.02.29-.04.43-.04.81,0,1.45.23,1.93.67.48.45.72,1.05.72,1.81s-.25,1.4-.74,1.83-1.18.64-2.06.64c-.31,0-.62-.03-.94-.07-.32-.05-.64-.12-.98-.23v-.99c.29.16.59.28.91.36.31.08.64.11.99.11.56,0,1.01-.14,1.34-.44.32-.3.49-.7.49-1.21s-.17-.9-.49-1.2c-.33-.3-.78-.45-1.34-.45-.26,0-.53.03-.79.09-.26.06-.53.15-.8.27v-3.66Z"/>
  <path d="M34.27,42.55c.81,0,1.43.33,1.87.97.43.65.65,1.59.65,2.81s-.22,2.17-.65,2.81c-.44.64-1.06.96-1.88.96s-1.44-.32-1.87-.96c-.43-.64-.64-1.58-.64-2.81s.21-2.16.64-2.81c.43-.64,1.06-.97,1.88-.97ZM34.27,43.33c-.51,0-.89.25-1.15.75-.26.5-.38,1.25-.38,2.25s.12,1.75.38,2.25c.26.5.64.75,1.15.75s.89-.25,1.15-.75c.25-.5.38-1.25.38-2.25s-.13-1.75-.38-2.25c-.26-.5-.64-.75-1.15-.75Z"/>
  <line class="cls-3" x1="44.46" y1="25.82" x2="40.96" y2="25.82"/>
  <path d="M18.37,22.2c.81,0,1.43.33,1.87.97.43.65.65,1.59.65,2.81s-.22,2.17-.65,2.81c-.44.64-1.06.96-1.88.96s-1.44-.32-1.87-.96-.64-1.58-.64-2.81.21-2.16.64-2.81c.43-.64,1.06-.97,1.88-.97ZM18.37,22.98c-.51,0-.89.25-1.15.75s-.38,1.25-.38,2.25.12,1.75.38,2.25.64.75,1.15.75.89-.25,1.15-.75c.25-.5.38-1.25.38-2.25s-.13-1.75-.38-2.25c-.26-.5-.64-.75-1.15-.75Z"/>
  <rect x="22.62" y="28.38" width="1.03" height="1.24"/>
  <polygon points="25.55 22.33 30.24 22.33 30.24 22.75 27.59 29.62 26.56 29.62 29.05 23.16 25.55 23.16 25.55 22.33"/>
  <path d="M32.17,22.33h3.87v.83h-2.97v1.79c.14-.05.29-.09.43-.11.14-.02.29-.04.43-.04.81,0,1.45.23,1.93.67.48.45.72,1.05.72,1.81s-.25,1.4-.74,1.83c-.49.43-1.18.64-2.06.64-.31,0-.62-.03-.94-.07-.32-.05-.64-.12-.98-.23v-.99c.29.16.59.28.91.36.31.08.64.11.99.11.56,0,1.01-.14,1.34-.44.32-.3.49-.7.49-1.21s-.17-.9-.49-1.2c-.33-.3-.78-.45-1.34-.45-.26,0-.53.03-.79.09-.26.06-.53.15-.8.27v-3.66Z"/>
  <line class="cls-3" x1="44.46" y1="5.47" x2="40.96" y2="5.47"/>
  <polygon points="16.43 8.44 18.04 8.44 18.04 2.88 16.29 3.23 16.29 2.33 18.03 1.98 19.02 1.98 19.02 8.44 20.63 8.44 20.63 9.27 16.43 9.27 16.43 8.44"/>
  <rect x="22.62" y="8.03" width="1.03" height="1.24"/>
  <path d="M27.91,1.85c.81,0,1.43.33,1.87.97.43.65.65,1.59.65,2.81s-.22,2.17-.65,2.81c-.44.64-1.06.96-1.88.96s-1.44-.32-1.87-.96c-.43-.64-.64-1.58-.64-2.81s.21-2.16.64-2.81c.43-.64,1.06-.97,1.88-.97ZM27.91,2.63c-.51,0-.89.25-1.15.75s-.38,1.25-.38,2.25.12,1.75.38,2.25.64.75,1.15.75.89-.25,1.15-.75c.25-.5.38-1.25.38-2.25s-.13-1.75-.38-2.25c-.26-.5-.64-.75-1.15-.75Z"/>
  <path d="M34.27,1.85c.81,0,1.43.33,1.87.97.43.65.65,1.59.65,2.81s-.22,2.17-.65,2.81c-.44.64-1.06.96-1.88.96s-1.44-.32-1.87-.96c-.43-.64-.64-1.58-.64-2.81s.21-2.16.64-2.81c.43-.64,1.06-.97,1.88-.97ZM34.27,2.63c-.51,0-.89.25-1.15.75-.26.5-.38,1.25-.38,2.25s.12,1.75.38,2.25c.26.5.64.75,1.15.75s.89-.25,1.15-.75c.25-.5.38-1.25.38-2.25s-.13-1.75-.38-2.25c-.26-.5-.64-.75-1.15-.75Z"/>
  <path d="M4.7,52.28c-.4-.22-.69-.49-.89-.8-.19-.31-.29-.68-.29-1.11,0-.56.2-1,.6-1.31.4-.31.97-.47,1.7-.47h3.3v.9h-3.27c-.52,0-.91.1-1.17.28-.25.19-.38.47-.38.85,0,.47.16.84.47,1.11s.73.4,1.26.4h3.09v.9h-3.27c-.52,0-.91.1-1.17.28-.25.19-.38.48-.38.86,0,.46.16.83.47,1.1.31.27.73.4,1.26.4h3.09v.9H3.65v-.9h.85c-.33-.2-.58-.45-.74-.74-.16-.28-.24-.62-.24-1.02s.1-.73.3-1.01c.2-.28.5-.48.88-.62Z"/>
  <path d="M1.83,44.88v-1.12l7.29-2.78v1.03l-1.87.66v3.29l1.87.66v1.04l-7.29-2.78ZM2.8,44.32l3.63,1.34v-2.68l-3.63,1.34Z"/>
  <path d="M1.83,39.92v-2.23c0-.81.19-1.43.56-1.85.37-.42.91-.63,1.62-.63s1.27.21,1.63.63c.37.42.55,1.04.55,1.85v1.24h2.93v.99H1.83ZM2.64,38.93h2.74v-1.24c0-.46-.11-.81-.35-1.06-.24-.25-.58-.38-1.02-.38s-.77.13-1.01.38c-.24.25-.36.6-.36,1.06v1.24Z"/>
  <line class="cls-6" x1="44.46" y1="86.87" x2="44.46" y2="5.47"/>
  <line class="cls-6" x1="465.66" y1="86.87" x2="465.66" y2="5.47"/>
  <line class="cls-6" x1="44.46" y1="86.87" x2="465.66" y2="86.87"/>
  <line class="cls-6" x1="44.46" y1="5.47" x2="465.66" y2="5.47"/>
  <g>
    <rect class="cls-10" x="38.92" y="106.95" width="425.54" height="29.14" rx="1.8" ry="1.8"/>
    <rect class="cls-2" x="38.92" y="106.95" width="425.54" height="29.14" rx="1.8" ry="1.8"/>
  </g>
  <rect class="cls-93" x="42.52" y="111.1" width="18" height="6.3"/>
  <rect class="cls-5" x="42.52" y="111.1" width="18" height="6.3"/>
  <polygon points="68.02 110.83 68.92 110.83 70.29 116.38 71.67 110.83 72.67 110.83 74.05 116.38 75.42 110.83 76.32 110.83 74.68 117.4 73.56 117.4 72.17 111.7 70.78 117.4 69.66 117.4 68.02 110.83"/>
  <path d="M80.76,114.59v2.81h-.81v-.75c-.19.31-.42.52-.69.66-.27.14-.61.21-1.01.21-.5,0-.91-.14-1.21-.41-.3-.28-.44-.66-.44-1.13,0-.55.18-.96.56-1.25.37-.28.92-.42,1.66-.42h1.13v-.08c0-.37-.13-.66-.37-.86-.24-.2-.58-.31-1.03-.31-.29,0-.56.04-.83.11-.27.07-.52.17-.76.3v-.75c.29-.11.58-.2.85-.25.28-.05.55-.09.82-.09.71,0,1.24.19,1.59.56s.53.93.53,1.67ZM79.14,114.92c-.66,0-1.11.08-1.36.23-.25.15-.38.41-.38.76,0,.29.09.52.28.68.19.17.45.25.77.25.45,0,.81-.15,1.08-.48.27-.32.4-.74.4-1.27v-.18h-.8Z"/>
  <path d="M86.52,114.43v2.97h-.81v-2.94c0-.47-.1-.81-.28-1.04-.18-.23-.45-.35-.81-.35-.44,0-.78.14-1.03.42-.25.28-.38.66-.38,1.13v2.78h-.81v-4.92h.81v.76c.19-.29.41-.51.68-.66.26-.14.57-.23.91-.23.56,0,.99.18,1.28.53s.44.86.44,1.54Z"/>
  <path d="M92.18,116.78c0,.83-.19,1.45-.56,1.86-.38.41-.94.61-1.71.61-.29,0-.55-.03-.8-.06-.25-.05-.5-.11-.74-.2v-.78c.23.13.47.22.7.28s.47.1.71.1c.52,0,.92-.14,1.19-.41.26-.28.4-.69.4-1.25v-.4c-.17.29-.39.5-.65.65-.26.14-.57.22-.93.22-.61,0-1.1-.23-1.47-.68-.37-.46-.55-1.07-.55-1.84s.18-1.37.55-1.83c.37-.46.86-.69,1.47-.69.36,0,.67.07.93.22.26.14.48.36.65.65v-.75h.81v4.31ZM91.37,114.88c0-.58-.13-1.03-.36-1.36-.24-.32-.58-.49-1.02-.49s-.77.16-1.02.49c-.24.32-.36.78-.36,1.36s.12,1.03.36,1.36c.24.32.58.49,1.02.49s.77-.16,1.02-.49c.23-.32.36-.77.36-1.36Z"/>
  <path d="M100.1,114.5c0-.44-.14-.79-.37-1.06-.24-.26-.57-.4-.96-.4-.45,0-.81.14-1.08.39-.27.25-.43.61-.47,1.07h2.88ZM100.91,114.73v.4h-3.72c.04.56.2.99.5,1.28.3.29.71.43,1.25.43.31,0,.61-.04.9-.11s.58-.19.87-.35v.76c-.29.13-.58.23-.89.28-.31.05-.62.09-.93.09-.79,0-1.41-.23-1.87-.68-.46-.45-.68-1.07-.68-1.85s.22-1.44.65-1.92c.43-.47,1.03-.71,1.76-.71.67,0,1.19.22,1.58.64.38.43.58,1.01.58,1.74Z"/>
  <path d="M103.04,111.08v1.4h1.67v.63h-1.67v2.67c0,.41.05.67.16.77.11.12.33.17.68.17h.83v.67h-.83c-.63,0-1.06-.12-1.3-.35-.23-.23-.35-.66-.35-1.27v-2.67h-.59v-.63h.59v-1.4h.81Z"/>
  <path d="M112.48,114.59v2.81h-.81v-.75c-.19.31-.42.52-.69.66-.27.14-.61.21-1.01.21-.5,0-.91-.14-1.21-.41-.3-.28-.44-.66-.44-1.13,0-.55.18-.96.56-1.25.37-.28.92-.42,1.66-.42h1.13v-.08c0-.37-.13-.66-.37-.86-.24-.2-.58-.31-1.03-.31-.29,0-.56.04-.83.11-.27.07-.52.17-.76.3v-.75c.29-.11.58-.2.85-.25.28-.05.55-.09.82-.09.71,0,1.24.19,1.59.56s.53.93.53,1.67ZM110.87,114.92c-.66,0-1.11.08-1.36.23-.25.15-.38.41-.38.76,0,.29.09.52.28.68.19.17.45.25.77.25.45,0,.81-.15,1.08-.48.27-.32.4-.74.4-1.27v-.18h-.8Z"/>
  <rect x="114.15" y="110.56" width=".81" height="6.84"/>
  <rect x="116.76" y="116.28" width=".93" height="1.12"/>
  <rect class="cls-13" x="42.52" y="124.31" width="18" height="6.3"/>
  <rect class="cls-5" x="42.52" y="124.31" width="18" height="6.3"/>
  <polygon points="68.6 124.05 69.49 124.05 69.49 129.87 72.69 129.87 72.69 130.61 68.6 130.61 68.6 124.05"/>
  <path d="M78.09,129.68v-1.76h-1.45v-.73h2.33v2.82c-.34.25-.72.43-1.13.55-.41.12-.85.18-1.32.18-1.03,0-1.84-.3-2.41-.89-.58-.59-.86-1.43-.86-2.5s.29-1.9.86-2.5c.58-.59,1.39-.9,2.41-.9.42,0,.83.05,1.22.16.39.11.75.26,1.07.46v.94c-.33-.27-.68-.48-1.05-.62s-.76-.22-1.16-.22c-.81,0-1.41.22-1.81.67-.4.45-.6,1.12-.6,2s.2,1.56.6,2.01c.4.45,1,.67,1.81.67.31,0,.59-.03.84-.08s.47-.14.67-.25Z"/>
  <path d="M83.41,126.45c-.09-.05-.19-.09-.3-.12-.11-.02-.22-.04-.35-.04-.46,0-.81.15-1.05.45-.25.3-.37.72-.37,1.28v2.59h-.81v-4.92h.81v.77c.16-.3.39-.52.66-.67.27-.14.6-.22,1-.22.05,0,.12,0,.19,0,.06,0,.14.02.22.04v.83Z"/>
  <path d="M88.1,127.81v2.81h-.81v-.75c-.19.31-.42.52-.69.66-.27.14-.61.21-1.01.21-.5,0-.91-.14-1.21-.41-.3-.28-.44-.66-.44-1.13,0-.55.18-.96.56-1.25.37-.28.92-.42,1.66-.42h1.13v-.08c0-.37-.13-.66-.37-.86-.24-.2-.58-.31-1.03-.31-.29,0-.56.04-.83.11-.27.07-.52.17-.76.3v-.75c.29-.11.58-.2.85-.25s.55-.09.82-.09c.71,0,1.24.19,1.59.56.35.37.53.93.53,1.67ZM86.49,128.14c-.66,0-1.11.08-1.36.22-.25.15-.38.41-.38.77,0,.29.09.52.28.68.19.17.45.25.77.25.45,0,.81-.15,1.08-.48.27-.32.4-.74.4-1.27v-.18h-.8Z"/>
  <path d="M90.25,128.16c0,.59.12,1.06.36,1.4.24.34.58.5,1.01.5s.77-.16,1.02-.5c.24-.34.37-.81.37-1.4s-.13-1.05-.37-1.39c-.25-.34-.58-.51-1.02-.51s-.76.17-1.01.51c-.24.34-.36.8-.36,1.39ZM93.01,126.44v-2.66h.81v6.84h-.81v-.74c-.17.3-.39.51-.65.65-.26.14-.57.21-.93.21-.59,0-1.08-.23-1.46-.7s-.56-1.1-.56-1.87.18-1.39.56-1.87c.38-.47.86-.71,1.46-.71.36,0,.67.07.93.22.26.14.48.36.65.65Z"/>
  <rect class="cls-8" x="123.09" y="111.1" width="18" height="6.3"/>
  <rect class="cls-5" x="123.09" y="111.1" width="18" height="6.3"/>
  <path d="M151.84,110.72c.92,0,1.65.31,2.21.93.55.61.83,1.44.83,2.48s-.28,1.86-.83,2.48c-.56.61-1.29.92-2.21.92s-1.67-.31-2.21-.92c-.56-.61-.83-1.43-.83-2.48s.27-1.86.83-2.48c.55-.61,1.29-.93,2.21-.93ZM151.84,111.44c-.65,0-1.16.24-1.54.72-.38.49-.57,1.13-.57,1.96s.19,1.49.57,1.96c.38.49.89.72,1.54.72s1.15-.23,1.53-.72c.38-.48.57-1.13.57-1.96s-.19-1.48-.57-1.96c-.38-.48-.89-.72-1.53-.72Z"/>
  <path d="M156.22,110.56h.81v1.03h-.81v-1.03ZM156.22,112.47h.81v5c0,.62-.13,1.07-.36,1.36-.24.28-.63.42-1.15.42h-.3v-.68h.21c.31,0,.51-.07.62-.22.11-.14.17-.44.17-.88v-5Z"/>
  <path d="M162.82,114.43v2.97h-.81v-2.94c0-.47-.1-.81-.28-1.04-.18-.23-.45-.35-.81-.35-.44,0-.78.14-1.04.42-.25.28-.38.66-.38,1.13v2.78h-.81v-6.84h.81v2.68c.19-.29.41-.51.68-.66.26-.14.57-.23.91-.23.56,0,.99.18,1.28.53s.44.86.44,1.54Z"/>
  <path d="M168.28,114.59v2.81h-.81v-.75c-.19.31-.42.52-.69.66-.27.14-.61.21-1.01.21-.5,0-.91-.14-1.21-.41-.3-.28-.44-.66-.44-1.13,0-.55.18-.96.56-1.25.37-.28.92-.42,1.66-.42h1.13v-.08c0-.37-.13-.66-.37-.86-.24-.2-.58-.31-1.03-.31-.29,0-.56.04-.83.11-.27.07-.52.17-.76.3v-.75c.29-.11.58-.2.86-.25.28-.05.55-.09.82-.09.71,0,1.24.19,1.59.56.35.37.53.93.53,1.67ZM166.67,114.92c-.66,0-1.11.08-1.36.23-.25.15-.38.41-.38.76,0,.29.09.52.28.68.19.17.45.25.77.25.45,0,.81-.15,1.08-.48.27-.32.4-.74.4-1.27v-.18h-.8Z"/>
  <path d="M176.21,114.5c0-.44-.13-.79-.37-1.06-.24-.26-.57-.4-.96-.4-.45,0-.81.14-1.08.39-.27.25-.43.61-.47,1.07h2.88ZM177.02,114.73v.4h-3.72c.04.56.2.99.5,1.28.3.29.71.43,1.25.43.31,0,.61-.04.9-.11s.58-.19.87-.35v.76c-.29.13-.59.23-.89.28-.31.05-.62.09-.93.09-.79,0-1.41-.23-1.87-.68-.46-.45-.68-1.07-.68-1.85s.22-1.44.65-1.92c.43-.47,1.03-.71,1.76-.71.67,0,1.19.22,1.57.64.38.43.58,1.01.58,1.74Z"/>
  <path d="M179.15,111.08v1.4h1.66v.63h-1.66v2.67c0,.41.05.67.16.77.11.12.33.17.67.17h.83v.67h-.83c-.63,0-1.06-.12-1.3-.35-.23-.23-.35-.66-.35-1.27v-2.67h-.59v-.63h.59v-1.4h.81Z"/>
  <path d="M188.59,114.59v2.81h-.81v-.75c-.19.31-.42.52-.69.66-.27.14-.61.21-1.01.21-.5,0-.91-.14-1.21-.41-.3-.28-.44-.66-.44-1.13,0-.55.18-.96.56-1.25.37-.28.92-.42,1.66-.42h1.13v-.08c0-.37-.13-.66-.37-.86-.24-.2-.58-.31-1.03-.31-.29,0-.56.04-.83.11-.27.07-.52.17-.76.3v-.75c.29-.11.58-.2.86-.25.28-.05.55-.09.82-.09.71,0,1.24.19,1.59.56.35.37.53.93.53,1.67ZM186.98,114.92c-.66,0-1.11.08-1.36.23-.25.15-.38.41-.38.76,0,.29.09.52.28.68.19.17.45.25.77.25.45,0,.81-.15,1.08-.48.27-.32.4-.74.4-1.27v-.18h-.8Z"/>
  <rect x="190.25" y="110.56" width=".81" height="6.84"/>
  <rect x="192.87" y="116.28" width=".93" height="1.12"/>
  <rect class="cls-12" x="123.09" y="124.31" width="18" height="6.3"/>
  <rect class="cls-5" x="123.09" y="124.31" width="18" height="6.3"/>
  <polygon points="149.18 124.05 150.37 124.05 153.28 129.54 153.28 124.05 154.14 124.05 154.14 130.61 152.95 130.61 150.04 125.12 150.04 130.61 149.18 130.61 149.18 124.05"/>
  <path d="M155.91,124.05h2.01c.73,0,1.29.17,1.66.5.38.33.57.82.57,1.46s-.19,1.14-.57,1.47c-.38.33-.94.5-1.66.5h-1.12v2.64h-.89v-6.56ZM156.8,124.78v2.47h1.12c.41,0,.73-.1.95-.32.22-.22.34-.52.34-.92s-.12-.69-.34-.91c-.23-.22-.54-.32-.95-.32h-1.12Z"/>
  <path d="M162.23,124.78v2.33h1.12c.42,0,.75-.1.96-.3.22-.2.33-.49.33-.87s-.12-.67-.33-.86c-.22-.2-.54-.3-.96-.3h-1.12ZM164.45,127.54c.19.07.38.21.56.41.18.22.36.5.54.87l.9,1.79h-.95l-.84-1.68c-.22-.43-.43-.73-.63-.87-.21-.14-.49-.22-.84-.22h-.96v2.77h-.89v-6.56h2.01c.75,0,1.3.16,1.67.47.37.32.56.79.56,1.42,0,.41-.1.76-.29,1.03-.2.27-.48.46-.84.56Z"/>
  <rect class="cls-14" x="199.25" y="111.1" width="18" height="6.3"/>
  <rect class="cls-5" x="199.25" y="111.1" width="18" height="6.3"/>
  <path d="M229.8,116.46v-1.76h-1.45v-.73h2.33v2.82c-.34.25-.72.43-1.13.55s-.85.18-1.32.18c-1.03,0-1.84-.3-2.41-.89-.58-.59-.86-1.43-.86-2.5s.29-1.9.86-2.5c.58-.59,1.39-.9,2.41-.9.42,0,.83.05,1.21.16.39.11.75.26,1.07.46v.94c-.33-.27-.68-.48-1.05-.62-.37-.14-.76-.22-1.16-.22-.81,0-1.41.22-1.81.67-.4.45-.6,1.12-.6,2s.2,1.56.6,2.01c.4.45,1,.67,1.81.67.31,0,.58-.03.84-.08s.47-.14.67-.25Z"/>
  <path d="M235.67,114.5c0-.44-.13-.79-.37-1.06-.24-.26-.57-.4-.96-.4-.45,0-.81.14-1.08.39-.27.25-.43.61-.47,1.07h2.88ZM236.48,114.73v.4h-3.72c.04.56.2.99.5,1.28.3.29.71.43,1.25.43.31,0,.61-.04.9-.11s.58-.19.87-.35v.76c-.29.13-.59.23-.89.28-.31.05-.62.09-.93.09-.79,0-1.41-.23-1.87-.68-.46-.45-.68-1.07-.68-1.85s.22-1.44.65-1.92c.43-.47,1.03-.71,1.76-.71.67,0,1.19.22,1.57.64.38.43.58,1.01.58,1.74Z"/>
  <path d="M241.9,114.43v2.97h-.81v-2.94c0-.47-.1-.81-.28-1.04-.18-.23-.45-.35-.81-.35-.44,0-.78.14-1.04.42-.25.28-.38.66-.38,1.13v2.78h-.81v-4.92h.81v.76c.19-.29.41-.51.68-.66.26-.14.57-.23.91-.23.56,0,.99.18,1.28.53s.44.86.44,1.54Z"/>
  <rect x="243.54" y="110.83" width=".89" height="6.56"/>
  <path d="M250,113.42c.2-.36.44-.62.72-.8.28-.17.61-.26,1-.26.5,0,.9.18,1.18.54.28.36.42.87.42,1.53v2.97h-.81v-2.94c0-.47-.09-.82-.25-1.05-.17-.23-.42-.34-.76-.34-.42,0-.76.14-1,.42-.24.28-.36.66-.36,1.13v2.78h-.81v-2.94c0-.47-.09-.82-.25-1.05-.17-.23-.43-.34-.77-.34-.41,0-.75.14-.99.42-.24.28-.36.66-.36,1.13v2.78h-.81v-4.92h.81v.76c.18-.3.4-.52.67-.67.25-.14.56-.22.92-.22s.66.09.91.27.43.45.56.79Z"/>
  <path d="M258.78,114.59v2.81h-.81v-.75c-.19.31-.42.52-.69.66-.27.14-.61.21-1.01.21-.5,0-.91-.14-1.21-.41-.3-.28-.44-.66-.44-1.13,0-.55.18-.96.56-1.25.37-.28.92-.42,1.66-.42h1.13v-.08c0-.37-.13-.66-.37-.86-.24-.2-.59-.31-1.03-.31-.29,0-.56.04-.83.11-.27.07-.52.17-.76.3v-.75c.29-.11.58-.2.86-.25.28-.05.55-.09.82-.09.71,0,1.24.19,1.59.56.35.37.53.93.53,1.67ZM257.17,114.92c-.66,0-1.11.08-1.36.23-.25.15-.38.41-.38.76,0,.29.09.52.28.68.19.17.45.25.77.25.45,0,.81-.15,1.08-.48.27-.32.4-.74.4-1.27v-.18h-.8Z"/>
  <path d="M264.5,116.78c0,.83-.19,1.45-.56,1.86-.38.41-.95.61-1.71.61-.29,0-.55-.03-.8-.06-.25-.05-.5-.11-.74-.2v-.78c.23.13.47.22.7.28.23.06.47.1.71.1.52,0,.92-.14,1.19-.41.26-.28.4-.69.4-1.25v-.4c-.17.29-.39.5-.65.65-.26.14-.57.22-.93.22-.61,0-1.1-.23-1.47-.68-.37-.46-.55-1.07-.55-1.84s.18-1.37.55-1.83c.37-.46.85-.69,1.47-.69.36,0,.67.07.93.22.26.14.48.36.65.65v-.75h.81v4.31ZM263.69,114.88c0-.58-.13-1.03-.36-1.36-.24-.32-.59-.49-1.02-.49s-.77.16-1.02.49c-.24.32-.36.78-.36,1.36s.12,1.03.36,1.36c.24.32.59.49,1.02.49s.77-.16,1.02-.49c.23-.32.36-.77.36-1.36Z"/>
  <path d="M269.56,114.5c0-.44-.13-.79-.37-1.06-.24-.26-.57-.4-.96-.4-.45,0-.81.14-1.08.39-.27.25-.43.61-.47,1.07h2.88ZM270.37,114.73v.4h-3.72c.04.56.2.99.5,1.28.3.29.71.43,1.25.43.31,0,.61-.04.9-.11s.58-.19.87-.35v.76c-.29.13-.58.23-.89.28-.31.05-.62.09-.93.09-.79,0-1.41-.23-1.87-.68-.46-.45-.68-1.07-.68-1.85s.22-1.44.65-1.92c.43-.47,1.03-.71,1.76-.71.67,0,1.19.22,1.57.64.38.43.58,1.01.58,1.74Z"/>
  <rect class="cls-99" x="199.25" y="124.31" width="18" height="6.3"/>
  <rect class="cls-4" x="199.25" y="124.31" width="18" height="6.3"/>
  <path d="M227.99,123.94c.92,0,1.65.31,2.21.93.55.61.83,1.44.83,2.47s-.28,1.86-.83,2.48c-.56.61-1.29.92-2.21.92s-1.67-.31-2.21-.92c-.56-.61-.83-1.43-.83-2.48s.27-1.86.83-2.47c.55-.61,1.29-.93,2.21-.93ZM227.99,124.66c-.65,0-1.16.24-1.54.72-.38.49-.57,1.13-.57,1.96s.19,1.49.57,1.96c.38.49.89.72,1.54.72s1.15-.23,1.53-.72c.38-.48.57-1.13.57-1.96s-.19-1.48-.57-1.96c-.38-.48-.89-.72-1.53-.72Z"/>
  <path d="M234.33,125.57h0ZM232.29,128.67v-2.98h.81v2.95c0,.47.09.81.27,1.04.18.23.45.35.82.35.43,0,.78-.13,1.04-.41.25-.28.38-.66.38-1.14v-2.79h.81v4.92h-.81v-.76c-.2.31-.43.52-.68.67-.26.14-.56.21-.9.21-.57,0-1-.17-1.29-.52-.3-.34-.44-.86-.44-1.54Z"/>
  <path d="M240.93,126.45c-.09-.05-.19-.09-.3-.12-.11-.02-.22-.04-.35-.04-.46,0-.81.15-1.05.45-.25.3-.37.72-.37,1.28v2.59h-.81v-4.92h.81v.77c.16-.3.39-.52.66-.67.27-.14.6-.22,1-.22.05,0,.12,0,.19,0,.06,0,.13.02.23.04v.83Z"/>
  <path d="M244.92,125.84v.76c-.23-.11-.47-.2-.71-.26-.25-.05-.5-.09-.76-.09-.4,0-.71.06-.91.19s-.3.31-.3.55c0,.19.07.33.22.44.14.11.43.22.86.31l.28.06c.58.13.98.31,1.22.52.23.23.36.54.36.94,0,.46-.18.82-.54,1.08-.36.27-.86.4-1.49.4-.27,0-.54-.03-.83-.07s-.59-.12-.9-.22v-.84c.3.16.59.28.88.35.29.08.58.12.86.12.38,0,.68-.06.88-.19.2-.13.31-.32.31-.56,0-.22-.08-.39-.22-.5-.14-.12-.47-.23-.97-.34l-.28-.06c-.5-.11-.87-.27-1.09-.49-.22-.22-.33-.51-.33-.9,0-.46.16-.82.49-1.07.32-.25.79-.38,1.4-.38.3,0,.58.03.85.07.26.05.5.11.73.19Z"/>
  <rect class="cls-16" x="275.34" y="111.1" width="18" height="6.3"/>
  <rect class="cls-5" x="275.34" y="111.1" width="18" height="6.3"/>
  <path d="M302.31,111.56v2.33h1.12c.42,0,.75-.1.96-.3s.33-.49.33-.87-.12-.67-.33-.86-.54-.3-.96-.3h-1.12ZM304.53,114.32c.19.07.38.21.56.41.18.22.36.5.54.87l.9,1.79h-.95l-.84-1.68c-.22-.43-.43-.73-.63-.87-.21-.14-.49-.22-.84-.22h-.96v2.77h-.89v-6.56h2.01c.75,0,1.3.16,1.67.47.37.32.56.79.56,1.42,0,.41-.1.76-.29,1.03-.2.27-.48.46-.84.56Z"/>
  <polygon points="307.67 110.83 311.82 110.83 311.82 111.58 308.57 111.58 308.57 113.53 311.69 113.53 311.69 114.27 308.57 114.27 308.57 116.65 311.9 116.65 311.9 117.4 307.67 117.4 307.67 110.83"/>
  <path d="M313.36,110.83h1.83c1.27,0,2.2.27,2.8.79.59.53.89,1.36.89,2.48s-.31,1.96-.9,2.49-1.53.79-2.79.79h-1.83v-6.56ZM314.25,111.56v5.1h1.07c.9,0,1.57-.2,1.99-.61.41-.41.63-1.06.63-1.94s-.22-1.52-.63-1.93c-.42-.41-1.09-.61-1.99-.61h-1.07Z"/>
  <polygon points="320.53 116.65 321.98 116.65 321.98 111.64 320.4 111.96 320.4 111.15 321.97 110.83 322.86 110.83 322.86 116.65 324.31 116.65 324.31 117.4 320.53 117.4 320.53 116.65"/>
  <path d="M328.3,110.83h1.12v4.27h.94v.74h-.94v1.55h-.88v-1.55h-2.96v-.85l2.73-4.16ZM328.54,111.61l-2.24,3.5h2.24v-3.5Z"/>
  <path d="M333.72,110.72c.73,0,1.29.3,1.68.87.39.59.58,1.43.58,2.53s-.2,1.95-.58,2.53c-.4.58-.95.86-1.69.86s-1.3-.29-1.68-.86c-.39-.58-.58-1.42-.58-2.53s.19-1.94.58-2.53c.39-.58.95-.87,1.69-.87ZM333.72,111.42c-.46,0-.8.22-1.04.67s-.34,1.12-.34,2.02.11,1.58.34,2.03c.23.45.58.67,1.04.67s.8-.23,1.04-.67c.23-.45.34-1.12.34-2.03s-.12-1.57-.34-2.02c-.23-.45-.58-.67-1.04-.67Z"/>
  <rect x="339.89" y="114.57" width="2.37" height=".72"/>
  <polygon points="346.44 110.83 347.33 110.83 347.33 113.53 350.55 113.53 350.55 110.83 351.44 110.83 351.44 117.4 350.55 117.4 350.55 114.27 347.33 114.27 347.33 117.4 346.44 117.4 346.44 110.83"/>
  <path d="M353.17,110.56h.81v1.03h-.81v-1.03ZM353.17,112.47h.81v4.92h-.81v-4.92Z"/>
  <path d="M359.72,116.78c0,.83-.19,1.45-.56,1.86-.38.41-.95.61-1.71.61-.29,0-.55-.03-.8-.06-.25-.05-.5-.11-.74-.2v-.78c.23.13.47.22.7.28.23.06.47.1.71.1.52,0,.92-.14,1.19-.41.26-.28.4-.69.4-1.25v-.4c-.17.29-.39.5-.65.65-.26.14-.57.22-.93.22-.61,0-1.1-.23-1.47-.68-.37-.46-.55-1.07-.55-1.84s.18-1.37.55-1.83c.37-.46.85-.69,1.47-.69.36,0,.67.07.93.22.26.14.48.36.65.65v-.75h.81v4.31ZM358.91,114.88c0-.58-.13-1.03-.36-1.36-.24-.32-.59-.49-1.02-.49s-.77.16-1.02.49c-.24.32-.36.78-.36,1.36s.12,1.03.36,1.36c.24.32.59.49,1.02.49s.77-.16,1.02-.49c.23-.32.36-.77.36-1.36Z"/>
  <path d="M365.48,114.43v2.97h-.81v-2.94c0-.47-.1-.81-.28-1.04-.18-.23-.45-.35-.81-.35-.44,0-.78.14-1.04.42-.25.28-.38.66-.38,1.13v2.78h-.81v-6.84h.81v2.68c.19-.29.41-.51.68-.66.26-.14.57-.23.91-.23.56,0,.99.18,1.28.53s.44.86.44,1.54Z"/>
  <path d="M372.81,113.23c-.09-.05-.19-.09-.3-.12-.11-.02-.23-.04-.35-.04-.46,0-.81.15-1.05.45-.25.3-.37.72-.37,1.28v2.59h-.81v-4.92h.81v.76c.16-.3.39-.52.66-.67.27-.14.6-.22,1-.22.05,0,.12,0,.19,0,.06,0,.14.02.23.04v.83Z"/>
  <path d="M376.87,114.5c0-.44-.13-.79-.37-1.06-.24-.26-.57-.4-.96-.4-.45,0-.81.14-1.08.39-.27.25-.43.61-.47,1.07h2.88ZM377.68,114.73v.4h-3.72c.04.56.2.99.5,1.28.3.29.71.43,1.25.43.31,0,.61-.04.9-.11s.58-.19.87-.35v.76c-.29.13-.58.23-.89.28-.31.05-.62.09-.93.09-.79,0-1.41-.23-1.87-.68-.46-.45-.68-1.07-.68-1.85s.22-1.44.65-1.92c.43-.47,1.03-.71,1.76-.71.67,0,1.19.22,1.57.64.38.43.58,1.01.58,1.74Z"/>
  <path d="M382.14,112.62v.77c-.23-.11-.47-.2-.71-.26-.25-.05-.5-.09-.77-.09-.4,0-.71.06-.91.19s-.3.31-.3.55c0,.19.07.33.22.44.14.11.43.22.86.31l.28.06c.58.13.98.31,1.22.52.23.23.36.54.36.94,0,.46-.18.82-.54,1.08-.36.27-.86.4-1.49.4-.27,0-.54-.03-.83-.07-.29-.05-.58-.12-.9-.23v-.84c.3.16.59.28.88.35.29.08.58.12.86.12.38,0,.68-.06.88-.19.2-.13.31-.31.31-.56,0-.22-.08-.39-.23-.5-.14-.12-.47-.23-.97-.34l-.28-.06c-.5-.11-.87-.27-1.09-.49-.23-.22-.33-.51-.33-.9,0-.46.16-.82.49-1.07.32-.25.79-.38,1.4-.38.3,0,.58.03.85.07.26.05.5.11.73.19Z"/>
  <rect x="383.81" y="116.28" width=".93" height="1.12"/>
  <rect class="cls-95" x="275.34" y="124.31" width="18" height="6.3"/>
  <rect class="cls-4" x="275.34" y="124.31" width="18" height="6.3"/>
  <path d="M304.08,123.94c.92,0,1.65.31,2.21.93.55.61.83,1.44.83,2.47s-.28,1.86-.83,2.48c-.56.61-1.29.92-2.21.92s-1.66-.31-2.21-.92c-.56-.61-.83-1.43-.83-2.48s.27-1.86.83-2.47c.55-.61,1.29-.93,2.21-.93ZM304.08,124.66c-.65,0-1.16.24-1.54.72-.38.49-.57,1.13-.57,1.96s.19,1.49.57,1.96c.38.49.89.72,1.54.72s1.15-.23,1.53-.72c.38-.48.57-1.13.57-1.96s-.19-1.48-.57-1.96c-.38-.48-.89-.72-1.53-.72Z"/>
  <path d="M310.42,125.57h0ZM308.39,128.67v-2.98h.81v2.95c0,.47.09.81.27,1.04.18.23.45.35.82.35.43,0,.78-.13,1.04-.41.25-.28.38-.66.38-1.14v-2.79h.81v4.92h-.81v-.76c-.2.31-.43.52-.68.67-.26.14-.56.21-.9.21-.57,0-1-.17-1.29-.52-.3-.34-.44-.86-.44-1.54Z"/>
  <path d="M317.03,126.45c-.09-.05-.19-.09-.3-.12-.11-.02-.23-.04-.35-.04-.46,0-.81.15-1.05.45-.25.3-.37.72-.37,1.28v2.59h-.81v-4.92h.81v.77c.16-.3.39-.52.66-.67.27-.14.6-.22,1-.22.05,0,.12,0,.19,0,.06,0,.14.02.23.04v.83Z"/>
  <path d="M321.01,125.84v.76c-.23-.11-.47-.2-.71-.26-.25-.05-.5-.09-.77-.09-.4,0-.71.06-.91.19s-.3.31-.3.55c0,.19.07.33.22.44.14.11.43.22.86.31l.28.06c.58.13.98.31,1.22.52.23.23.36.54.36.94,0,.46-.18.82-.54,1.08-.36.27-.86.4-1.49.4-.27,0-.54-.03-.83-.07-.29-.05-.58-.12-.9-.22v-.84c.3.16.59.28.88.35.29.08.58.12.86.12.38,0,.68-.06.88-.19.2-.13.31-.32.31-.56,0-.22-.08-.39-.23-.5-.14-.12-.47-.23-.97-.34l-.28-.06c-.5-.11-.87-.27-1.09-.49-.23-.22-.33-.51-.33-.9,0-.46.16-.82.49-1.07s.79-.38,1.4-.38c.3,0,.58.03.85.07.26.05.5.11.73.19Z"/>
  <rect x="325.02" y="127.79" width="2.37" height=".72"/>
  <polygon points="331.57 124.05 332.46 124.05 332.46 126.74 335.68 126.74 335.68 124.05 336.57 124.05 336.57 130.61 335.68 130.61 335.68 127.49 332.46 127.49 332.46 130.61 331.57 130.61 331.57 124.05"/>
  <path d="M338.3,123.77h.81v1.03h-.81v-1.03ZM338.3,125.69h.81v4.92h-.81v-4.92Z"/>
  <path d="M344.85,130c0,.83-.19,1.45-.56,1.86-.38.41-.95.61-1.71.61-.29,0-.55-.03-.8-.06-.25-.05-.5-.11-.74-.2v-.78c.23.13.47.22.7.28.23.06.47.1.71.1.52,0,.92-.14,1.19-.41.26-.28.4-.69.4-1.25v-.4c-.17.29-.39.5-.65.65-.26.14-.57.22-.93.22-.61,0-1.1-.22-1.47-.68-.37-.46-.55-1.07-.55-1.84s.18-1.37.55-1.83c.37-.46.85-.69,1.47-.69.36,0,.67.07.93.22.26.14.48.36.65.65v-.75h.81v4.31ZM344.04,128.09c0-.58-.13-1.04-.36-1.36-.24-.32-.59-.49-1.02-.49s-.77.16-1.02.49c-.24.32-.36.78-.36,1.36s.12,1.03.36,1.36c.24.32.59.49,1.02.49s.77-.16,1.02-.49c.23-.32.36-.77.36-1.36Z"/>
  <path d="M350.61,127.64v2.97h-.81v-2.94c0-.47-.1-.81-.28-1.04-.18-.23-.45-.35-.81-.35-.44,0-.78.14-1.04.42-.25.28-.38.66-.38,1.13v2.78h-.81v-6.84h.81v2.68c.19-.29.41-.51.68-.66.26-.14.57-.23.91-.23.56,0,.99.18,1.28.53s.44.86.44,1.54Z"/>
  <path d="M357.94,126.45c-.09-.05-.19-.09-.3-.12-.11-.02-.23-.04-.35-.04-.46,0-.81.15-1.05.45-.25.3-.37.72-.37,1.28v2.59h-.81v-4.92h.81v.77c.16-.3.39-.52.66-.67.27-.14.6-.22,1-.22.05,0,.12,0,.19,0,.06,0,.14.02.23.04v.83Z"/>
  <path d="M362,127.72c0-.44-.13-.79-.37-1.06-.24-.26-.57-.4-.96-.4-.45,0-.81.14-1.08.39s-.43.61-.47,1.07h2.88ZM362.81,127.95v.4h-3.72c.04.56.2.99.5,1.28.3.29.71.43,1.25.43.31,0,.61-.04.9-.11s.58-.19.87-.35v.77c-.29.13-.58.22-.89.28s-.62.09-.93.09c-.79,0-1.41-.22-1.87-.68-.46-.45-.68-1.07-.68-1.85s.22-1.44.65-1.92c.43-.47,1.03-.71,1.76-.71.67,0,1.19.22,1.57.64.38.43.58,1.01.58,1.74Z"/>
  <path d="M367.27,125.84v.76c-.23-.11-.47-.2-.71-.26-.25-.05-.5-.09-.77-.09-.4,0-.71.06-.91.19s-.3.31-.3.55c0,.19.07.33.22.44.14.11.43.22.86.31l.28.06c.58.13.98.31,1.22.52.23.23.36.54.36.94,0,.46-.18.82-.54,1.08-.36.27-.86.4-1.49.4-.27,0-.54-.03-.83-.07-.29-.05-.58-.12-.9-.22v-.84c.3.16.59.28.88.35.29.08.58.12.86.12.38,0,.68-.06.88-.19.2-.13.31-.32.31-.56,0-.22-.08-.39-.23-.5-.14-.12-.47-.23-.97-.34l-.28-.06c-.5-.11-.87-.27-1.09-.49-.23-.22-.33-.51-.33-.9,0-.46.16-.82.49-1.07s.79-.38,1.4-.38c.3,0,.58.03.85.07.26.05.5.11.73.19Z"/>
  <rect x="368.94" y="129.5" width=".93" height="1.12"/>
  <rect class="cls-11" x="390.16" y="111.1" width="18" height="6.3"/>
  <rect class="cls-5" x="390.16" y="111.1" width="18" height="6.3"/>
  <path d="M417.94,110.83h1.01l2.5,6.56h-.93l-.59-1.68h-2.96l-.59,1.68h-.94l2.5-6.56ZM418.44,111.71l-1.21,3.27h2.41l-1.21-3.27Z"/>
  <path d="M425.61,114.5c0-.44-.13-.79-.37-1.06-.24-.26-.57-.4-.96-.4-.45,0-.81.14-1.08.39-.27.25-.43.61-.47,1.07h2.88ZM426.42,114.73v.4h-3.72c.04.56.2.99.5,1.28.3.29.71.43,1.25.43.31,0,.61-.04.9-.11s.58-.19.87-.35v.76c-.29.13-.58.23-.89.28-.31.05-.62.09-.93.09-.79,0-1.41-.23-1.87-.68-.46-.45-.68-1.07-.68-1.85s.22-1.44.65-1.92c.43-.47,1.03-.71,1.76-.71.67,0,1.19.22,1.57.64.38.43.58,1.01.58,1.74Z"/>
  <path d="M430.6,113.23c-.09-.05-.19-.09-.3-.12-.11-.02-.23-.04-.35-.04-.46,0-.81.15-1.05.45-.25.3-.37.72-.37,1.28v2.59h-.81v-4.92h.81v.76c.16-.3.39-.52.66-.67.27-.14.6-.22,1-.22.05,0,.12,0,.19,0,.06,0,.14.02.23.04v.83Z"/>
  <path d="M433.16,112.36c.7,0,1.25.23,1.66.68.4.46.6,1.09.6,1.9s-.21,1.44-.6,1.89c-.4.46-.95.68-1.66.68s-1.27-.23-1.67-.68c-.4-.45-.59-1.08-.59-1.89s.2-1.44.59-1.9c.4-.45.95-.68,1.67-.68ZM433.16,113.04c-.43,0-.77.17-1.03.51-.25.34-.38.8-.38,1.39s.12,1.05.37,1.4c.25.34.59.5,1.04.5s.77-.16,1.03-.5c.25-.34.38-.8.38-1.4s-.13-1.04-.38-1.39c-.25-.34-.59-.51-1.03-.51Z"/>
  <path d="M437.55,113.22c.16-.29.38-.5.64-.65.26-.14.58-.22.94-.22.59,0,1.08.24,1.46.71.37.48.56,1.1.56,1.87s-.19,1.4-.56,1.87c-.38.47-.86.7-1.46.7-.36,0-.68-.07-.94-.21-.26-.14-.48-.35-.64-.65v.74h-.81v-6.84h.81v2.66ZM440.3,114.94c0-.59-.13-1.05-.37-1.39-.25-.34-.59-.51-1.01-.51s-.77.17-1.01.51c-.25.34-.37.8-.37,1.39s.12,1.06.37,1.4c.24.34.58.5,1.01.5s.76-.16,1.01-.5c.24-.34.37-.81.37-1.4Z"/>
  <rect x="442.48" y="110.56" width=".81" height="6.84"/>
  <path d="M448.83,114.59v2.81h-.81v-.75c-.19.31-.42.52-.69.66-.27.14-.61.21-1.01.21-.5,0-.91-.14-1.21-.41-.3-.28-.44-.66-.44-1.13,0-.55.18-.96.56-1.25.37-.28.92-.42,1.66-.42h1.13v-.08c0-.37-.13-.66-.37-.86-.24-.2-.59-.31-1.03-.31-.29,0-.56.04-.83.11-.27.07-.52.17-.77.3v-.75c.29-.11.58-.2.86-.25.28-.05.55-.09.82-.09.71,0,1.24.19,1.59.56.35.37.53.93.53,1.67ZM447.22,114.92c-.66,0-1.11.08-1.36.23-.25.15-.38.41-.38.76,0,.29.09.52.28.68.19.17.45.25.77.25.45,0,.81-.15,1.08-.48.27-.32.4-.74.4-1.27v-.18h-.8Z"/>
  <path d="M450.98,114.94c0,.59.12,1.06.36,1.4.24.34.58.5,1.01.5s.76-.16,1.02-.5c.24-.34.37-.81.37-1.4s-.13-1.05-.37-1.39c-.25-.34-.59-.51-1.02-.51s-.77.17-1.01.51c-.24.34-.36.8-.36,1.39ZM453.74,113.22v-2.66h.81v6.84h-.81v-.74c-.17.3-.39.51-.65.65-.26.14-.57.21-.93.21-.59,0-1.08-.23-1.46-.7-.38-.47-.56-1.1-.56-1.87s.18-1.39.56-1.87c.38-.47.86-.71,1.46-.71.36,0,.67.07.93.22.26.14.48.36.65.65Z"/>
  <path d="M459.61,114.5c0-.44-.13-.79-.37-1.06-.24-.26-.57-.4-.96-.4-.45,0-.81.14-1.08.39-.27.25-.43.61-.47,1.07h2.88ZM460.42,114.73v.4h-3.72c.04.56.2.99.5,1.28.3.29.71.43,1.25.43.31,0,.61-.04.9-.11s.58-.19.87-.35v.76c-.29.13-.58.23-.89.28-.31.05-.62.09-.93.09-.79,0-1.41-.23-1.87-.68-.46-.45-.68-1.07-.68-1.85s.22-1.44.65-1.92c.43-.47,1.03-.71,1.76-.71.67,0,1.19.22,1.57.64.38.43.58,1.01.58,1.74Z"/>
</svg>